<svg width="1199" height="653" viewBox="0 0 1199 653" fill="none" xmlns="http://www.w3.org/2000/svg">
<path d="M39.9958 465.5V460.5H35.8968L35.0929 464.519L39.9958 465.5ZM4.29582 644L-0.607082 643.019L-1.8032 649H4.29582V644ZM54.7858 644V649H58.8892L59.6897 644.976L54.7858 644ZM64.2208 596.57V591.57H60.1175L59.3169 595.594L64.2208 596.57ZM89.7208 596.57L94.085 594.13L92.6536 591.57H89.7208V596.57ZM116.241 644L111.877 646.44L113.308 649H116.241V644ZM169.026 644V649H177.606L173.376 641.535L169.026 644ZM138.681 590.45L137.053 585.722L131.365 587.681L134.331 592.915L138.681 590.45ZM71.8708 557.555L66.9726 556.551L65.7426 562.555H71.8708V557.555ZM82.5808 505.28V500.28H78.5014L77.6826 504.276L82.5808 505.28ZM193.151 522.365C193.151 503.172 186.025 487.441 172.424 476.631C158.978 465.944 139.758 460.5 116.241 460.5V470.5C138.369 470.5 155.104 475.638 166.202 484.459C177.145 493.157 183.151 505.858 183.151 522.365H193.151ZM116.241 460.5H39.9958V470.5H116.241V460.5ZM35.0929 464.519L-0.607082 643.019L9.19872 644.981L44.8987 466.481L35.0929 464.519ZM4.29582 649H54.7858V639H4.29582V649ZM59.6897 644.976L69.1247 597.546L59.3169 595.594L49.8819 643.024L59.6897 644.976ZM64.2208 601.57H89.7208V591.57H64.2208V601.57ZM85.3567 599.01L111.877 646.44L120.605 641.56L94.085 594.13L85.3567 599.01ZM116.241 649H169.026V639H116.241V649ZM173.376 641.535L143.031 587.985L134.331 592.915L164.676 646.465L173.376 641.535ZM140.308 595.178C173.337 583.807 193.151 557.498 193.151 522.365H183.151C183.151 553.022 166.245 575.673 137.053 585.722L140.308 595.178ZM132.151 527.21C132.151 535.857 129.336 541.933 124.633 545.939C119.808 550.049 112.321 552.555 101.961 552.555V562.555C113.786 562.555 123.893 559.706 131.118 553.552C138.463 547.294 142.151 538.198 142.151 527.21H132.151ZM101.961 552.555H71.8708V562.555H101.961V552.555ZM76.7691 558.559L87.4791 506.284L77.6826 504.276L66.9726 556.551L76.7691 558.559ZM82.5808 510.28H109.101V500.28H82.5808V510.28ZM109.101 510.28C117.233 510.28 123.012 511.914 126.645 514.616C130.029 517.131 132.151 521.013 132.151 527.21H142.151C142.151 518.362 138.917 511.278 132.611 506.59C126.555 502.088 118.309 500.28 109.101 500.28V510.28ZM328.716 644L323.818 645.008L324.64 649H328.716V644ZM378.951 644V649H385.301L383.811 642.827L378.951 644ZM335.856 465.5L340.716 464.327L339.792 460.5H335.856V465.5ZM286.131 465.5V460.5H283.398L281.922 462.8L286.131 465.5ZM171.636 644L167.427 641.3L162.488 649H171.636V644ZM224.931 644V649H227.772L229.226 646.559L224.931 644ZM245.586 609.32V604.32H242.744L241.29 606.761L245.586 609.32ZM321.576 609.32L326.473 608.312L325.651 604.32H321.576V609.32ZM267.771 572.09L263.465 569.548L259.013 577.09H267.771V572.09ZM301.941 514.205L306.837 513.191L304.213 500.52L297.635 511.663L301.941 514.205ZM313.926 572.09V577.09H320.067L318.822 571.076L313.926 572.09ZM328.716 649H378.951V639H328.716V649ZM383.811 642.827L340.716 464.327L330.995 466.673L374.09 645.173L383.811 642.827ZM335.856 460.5H286.131V470.5H335.856V460.5ZM281.922 462.8L167.427 641.3L175.844 646.7L290.339 468.2L281.922 462.8ZM171.636 649H224.931V639H171.636V649ZM229.226 646.559L249.881 611.879L241.29 606.761L220.635 641.441L229.226 646.559ZM245.586 614.32H321.576V604.32H245.586V614.32ZM316.678 610.328L323.818 645.008L333.613 642.992L326.473 608.312L316.678 610.328ZM272.076 574.632L306.246 516.747L297.635 511.663L263.465 569.548L272.076 574.632ZM297.044 515.219L309.029 573.104L318.822 571.076L306.837 513.191L297.044 515.219ZM313.926 567.09H267.771V577.09H313.926V567.09ZM549.324 465.5V460.5H545.219L544.42 464.527L549.324 465.5ZM529.944 563.165L525.668 565.756L532.342 576.773L534.849 564.138L529.944 563.165ZM470.784 465.5L475.061 462.909L473.602 460.5H470.784V465.5ZM429.219 465.5V460.5H425.12L424.317 464.519L429.219 465.5ZM393.519 644L388.617 643.019L387.42 649H393.519V644ZM442.989 644V649H447.086L447.892 644.983L442.989 644ZM462.624 546.08L466.909 543.503L460.259 532.447L457.722 545.097L462.624 546.08ZM521.529 644L517.245 646.577L518.702 649H521.529V644ZM563.094 644V649H567.193L567.997 644.981L563.094 644ZM598.794 465.5L603.697 466.481L604.893 460.5H598.794V465.5ZM544.42 464.527L525.04 562.192L534.849 564.138L554.229 466.473L544.42 464.527ZM534.221 560.574L475.061 462.909L466.508 468.091L525.668 565.756L534.221 560.574ZM470.784 460.5H429.219V470.5H470.784V460.5ZM424.317 464.519L388.617 643.019L398.422 644.981L434.122 466.481L424.317 464.519ZM393.519 649H442.989V639H393.519V649ZM447.892 644.983L467.527 547.063L457.722 545.097L438.087 643.017L447.892 644.983ZM458.34 548.657L517.245 646.577L525.814 641.423L466.909 543.503L458.34 548.657ZM521.529 649H563.094V639H521.529V649ZM567.997 644.981L603.697 466.481L593.892 464.519L558.192 643.019L567.997 644.981ZM598.794 460.5H549.324V470.5H598.794V460.5ZM719.324 580.505L714.423 579.516L714.42 579.528L714.418 579.539L719.324 580.505ZM742.529 465.5L747.43 466.489L748.638 460.5H742.529V465.5ZM630.839 465.5V460.5H626.75L625.938 464.507L630.839 465.5ZM622.934 504.515L618.033 503.522L616.819 509.515H622.934V504.515ZM684.644 504.515L689.549 505.483L690.727 499.515H684.644V504.515ZM669.089 583.31L673.986 584.32L673.99 584.299L673.994 584.278L669.089 583.31ZM614.009 589.175L618.197 586.444L614.912 581.407L610.559 585.556L614.009 589.175ZM581.369 620.285L577.919 616.666L574.868 619.573L577.218 623.072L581.369 620.285ZM642.569 652.57C664.274 652.57 682.355 647.966 696.294 636.332C710.213 624.715 719.26 606.71 724.23 581.471L714.418 579.539C709.697 603.515 701.404 619.042 689.887 628.654C678.39 638.249 662.938 642.57 642.569 642.57V652.57ZM724.225 581.494L747.43 466.489L737.628 464.511L714.423 579.516L724.225 581.494ZM742.529 460.5H630.839V470.5H742.529V460.5ZM625.938 464.507L618.033 503.522L627.834 505.508L635.739 466.493L625.938 464.507ZM622.934 509.515H684.644V499.515H622.934V509.515ZM679.738 503.547L664.183 582.342L673.994 584.278L689.549 505.483L679.738 503.547ZM664.192 582.3C662.666 589.693 660.03 594.6 656.735 597.651C653.522 600.625 649.206 602.28 643.334 602.28V612.28C651.232 612.28 658.135 609.982 663.529 604.988C668.841 600.07 672.196 592.992 673.986 584.32L664.192 582.3ZM643.334 602.28C633.259 602.28 625.218 597.209 618.197 586.444L609.821 591.906C618.1 604.601 628.929 612.28 643.334 612.28V602.28ZM610.559 585.556L577.919 616.666L584.818 623.904L617.458 592.794L610.559 585.556ZM577.218 623.072C590.399 642.705 612.889 652.57 642.569 652.57V642.57C615.128 642.57 596.308 633.565 585.52 617.498L577.218 623.072ZM872.832 644L867.935 645.008L868.756 649H872.832V644ZM923.067 644V649H929.418L927.927 642.827L923.067 644ZM879.972 465.5L884.832 464.327L883.908 460.5H879.972V465.5ZM830.247 465.5V460.5H827.514L826.038 462.8L830.247 465.5ZM715.752 644L711.543 641.3L706.604 649H715.752V644ZM769.047 644V649H771.888L773.343 646.559L769.047 644ZM789.702 609.32V604.32H786.86L785.406 606.761L789.702 609.32ZM865.692 609.32L870.589 608.312L869.767 604.32H865.692V609.32ZM811.887 572.09L807.581 569.548L803.129 577.09H811.887V572.09ZM846.057 514.205L850.953 513.191L848.329 500.52L841.751 511.663L846.057 514.205ZM858.042 572.09V577.09H864.183L862.938 571.076L858.042 572.09ZM872.832 649H923.067V639H872.832V649ZM927.927 642.827L884.832 464.327L875.111 466.673L918.206 645.173L927.927 642.827ZM879.972 460.5H830.247V470.5H879.972V460.5ZM826.038 462.8L711.543 641.3L719.96 646.7L834.455 468.2L826.038 462.8ZM715.752 649H769.047V639H715.752V649ZM773.343 646.559L793.998 611.879L785.406 606.761L764.751 641.441L773.343 646.559ZM789.702 614.32H865.692V604.32H789.702V614.32ZM860.794 610.328L867.935 645.008L877.729 642.992L870.589 608.312L860.794 610.328ZM816.193 574.632L850.363 516.747L841.751 511.663L807.581 569.548L816.193 574.632ZM841.161 515.219L853.146 573.104L862.938 571.076L850.953 513.191L841.161 515.219ZM858.042 567.09H811.887V577.09H858.042V567.09ZM1093.44 465.5V460.5H1089.34L1088.54 464.527L1093.44 465.5ZM1074.06 563.165L1069.78 565.756L1076.46 576.773L1078.97 564.138L1074.06 563.165ZM1014.9 465.5L1019.18 462.909L1017.72 460.5H1014.9V465.5ZM973.336 465.5V460.5H969.237L968.433 464.519L973.336 465.5ZM937.636 644L932.733 643.019L931.537 649H937.636V644ZM987.106 644V649H991.203L992.008 644.983L987.106 644ZM1006.74 546.08L1011.03 543.503L1004.37 532.447L1001.84 545.097L1006.74 546.08ZM1065.65 644L1061.36 646.577L1062.82 649H1065.65V644ZM1107.21 644V649H1111.31L1112.11 644.981L1107.21 644ZM1142.91 465.5L1147.81 466.481L1149.01 460.5H1142.91V465.5ZM1088.54 464.527L1069.16 562.192L1078.97 564.138L1098.35 466.473L1088.54 464.527ZM1078.34 560.574L1019.18 462.909L1010.62 468.091L1069.78 565.756L1078.34 560.574ZM1014.9 460.5H973.336V470.5H1014.9V460.5ZM968.433 464.519L932.733 643.019L942.539 644.981L978.239 466.481L968.433 464.519ZM937.636 649H987.106V639H937.636V649ZM992.008 644.983L1011.64 547.063L1001.84 545.097L982.203 643.017L992.008 644.983ZM1002.46 548.657L1061.36 646.577L1069.93 641.423L1011.03 543.503L1002.46 548.657ZM1065.65 649H1107.21V639H1065.65V649ZM1112.11 644.981L1147.81 466.481L1138.01 464.519L1102.31 643.019L1112.11 644.981ZM1142.91 460.5H1093.44V470.5H1142.91V460.5Z" fill="#7B0100" fill-opacity="0.6"/>
<path opacity="0.5" d="M108.2 72.4L113.2 72.4521L113.2 72.426V72.4H108.2ZM203.6 67.9L200.916 72.1183L205.632 75.1193L208.09 70.0993L203.6 67.9ZM225.2 23.8L229.69 25.9993L231.682 21.9323L227.832 19.5487L225.2 23.8ZM44.9 157.3L47.5767 153.077L43.0019 150.177L40.4767 154.969L44.9 157.3ZM21.5 201.7L17.0767 199.369L14.9969 203.315L18.6813 205.83L21.5 201.7ZM109.1 229.2C140.592 229.2 167.01 221.602 185.692 207.74C204.504 193.782 215.2 173.64 215.2 149.5H205.2C205.2 170.36 196.096 187.568 179.733 199.71C163.24 211.948 139.108 219.2 109.1 219.2V229.2ZM215.2 149.5C215.2 131.734 208.083 119.24 197.428 110.33C187.02 101.628 173.413 96.4839 160.509 92.6564C154.029 90.7344 147.529 89.0914 141.618 87.5308C135.633 85.951 130.265 84.459 125.739 82.7923C121.154 81.1045 117.871 79.389 115.796 77.5671C113.888 75.891 113.18 74.3102 113.2 72.4521L103.2 72.3479C103.145 77.6898 105.568 81.8933 109.197 85.0805C112.66 88.1219 117.319 90.3486 122.283 92.1764C127.305 94.0254 133.091 95.6224 139.065 97.1996C145.113 98.7961 151.377 100.378 157.666 102.244C170.299 105.991 182.248 110.672 191.013 118.001C199.529 125.123 205.2 134.866 205.2 149.5H215.2ZM113.2 72.4C113.2 68.935 115.115 65.2876 120.372 62.2568C125.73 59.168 134.222 57 146 57V47C133.178 47 122.77 49.332 115.378 53.5932C107.885 57.9124 103.2 64.465 103.2 72.4H113.2ZM146 57C165.869 57 185.313 62.1896 200.916 72.1183L206.284 63.6817C188.887 52.6104 167.531 47 146 47V57ZM208.09 70.0993L229.69 25.9993L220.71 21.6006L199.11 65.7007L208.09 70.0993ZM227.832 19.5487C207.899 7.20937 179.897 0.799986 149.6 0.799986V10.8C178.703 10.8 204.701 16.9906 222.568 28.0513L227.832 19.5487ZM149.6 0.799986C117.818 0.799986 91.4578 8.39355 72.9111 22.3135C54.2274 36.3363 43.8 56.5618 43.8 80.8H53.8C53.8 59.7382 62.7226 42.4636 78.9139 30.3115C95.2422 18.0564 119.282 10.8 149.6 10.8V0.799986ZM43.8 80.8C43.8 98.8217 50.8602 111.58 61.4692 120.743C71.8451 129.705 85.4224 135.068 98.3246 139.052C104.805 141.054 111.296 142.758 117.216 144.365C123.205 145.992 128.583 147.513 133.129 149.193C137.732 150.894 141.047 152.608 143.155 154.422C145.106 156.102 145.8 157.648 145.8 159.4H155.8C155.8 154.102 153.306 149.967 149.679 146.844C146.209 143.856 141.556 141.646 136.596 139.813C131.58 137.959 125.801 136.335 119.837 134.715C113.804 133.077 107.545 131.434 101.275 129.498C88.6776 125.607 76.7549 120.732 68.0058 113.175C59.4898 105.82 53.8 95.7783 53.8 80.8H43.8ZM145.8 159.4C145.8 162.751 144.015 165.931 139.028 168.547C133.876 171.248 125.784 173 114.8 173V183C126.616 183 136.524 181.152 143.672 177.403C150.985 173.569 155.8 167.449 155.8 159.4H145.8ZM114.8 173C91.7797 173 68.1035 166.087 47.5767 153.077L42.2233 161.523C64.2965 175.513 89.8203 183 114.8 183V173ZM40.4767 154.969L17.0767 199.369L25.9233 204.031L49.3233 159.631L40.4767 154.969ZM18.6813 205.83C38.6209 219.439 72.3811 229.2 109.1 229.2V219.2C73.8189 219.2 42.1791 209.761 24.3187 197.57L18.6813 205.83ZM407.138 9.99999V4.99999H403.033L402.234 9.02661L407.138 9.99999ZM391.538 88.6V93.6H395.643L396.443 89.5734L391.538 88.6ZM310.838 88.6L305.934 87.6266L304.748 93.6H310.838V88.6ZM326.438 9.99999L331.343 10.9734L332.528 4.99999H326.438V9.99999ZM267.038 9.99999V4.99999H262.939L262.135 9.01941L267.038 9.99999ZM225.038 220L220.135 219.019L218.939 225H225.038V220ZM284.438 220V225H288.543L289.343 220.974L284.438 220ZM300.638 138.4V133.4H296.533L295.734 137.426L300.638 138.4ZM381.338 138.4L386.243 139.374L387.428 133.4H381.338V138.4ZM365.138 220L360.234 219.026L359.048 225H365.138V220ZM424.538 220V225H428.637L429.441 220.981L424.538 220ZM466.538 9.99999L471.441 10.9806L472.637 4.99999H466.538V9.99999ZM402.234 9.02661L386.634 87.6266L396.443 89.5734L412.043 10.9734L402.234 9.02661ZM391.538 83.6H310.838V93.6H391.538V83.6ZM315.743 89.5734L331.343 10.9734L321.534 9.02661L305.934 87.6266L315.743 89.5734ZM326.438 4.99999L267.038 4.99999V15H326.438V4.99999ZM262.135 9.01941L220.135 219.019L229.941 220.981L271.941 10.9806L262.135 9.01941ZM225.038 225H284.438V215H225.038V225ZM289.343 220.974L305.543 139.374L295.734 137.426L279.534 219.026L289.343 220.974ZM300.638 143.4H381.338V133.4H300.638V143.4ZM376.434 137.426L360.234 219.026L370.043 220.974L386.243 139.374L376.434 137.426ZM365.138 225H424.538V215H365.138V225ZM429.441 220.981L471.441 10.9806L461.635 9.01941L419.635 219.019L429.441 220.981ZM466.538 4.99999H407.138V15H466.538V4.99999ZM680.338 129.1L685.24 130.085L685.241 130.076L680.338 129.1ZM704.038 9.99999L708.941 10.9758L710.13 4.99999H704.038V9.99999ZM645.538 9.99999V4.99999H641.438L640.635 9.0194L645.538 9.99999ZM622.438 125.5L627.337 126.497L627.339 126.489L627.34 126.481L622.438 125.5ZM543.237 125.5L548.14 126.481L543.237 125.5ZM566.338 9.99999L571.24 10.9806L572.437 4.99999H566.338V9.99999ZM506.938 9.99999V4.99999H502.843L502.036 9.01455L506.938 9.99999ZM483.538 126.4L478.636 125.415L478.631 125.435L478.627 125.456L483.538 126.4ZM569.038 229.2C600.829 229.2 626.759 220.849 646.398 203.953C666.004 187.085 678.791 162.175 685.24 130.085L675.435 128.115C669.284 158.725 657.321 181.365 639.877 196.372C622.466 211.351 599.046 219.2 569.038 219.2V229.2ZM685.241 130.076L708.941 10.9758L699.134 9.02416L675.434 128.124L685.241 130.076ZM704.038 4.99999H645.538V15H704.038V4.99999ZM640.635 9.0194L617.535 124.519L627.34 126.481L650.44 10.9806L640.635 9.0194ZM617.538 124.503C614.013 141.834 608.941 153.13 602.347 160.085C595.957 166.824 587.643 170 576.237 170V180C589.732 180 600.918 176.126 609.603 166.965C618.084 158.02 623.662 144.566 627.337 126.497L617.538 124.503ZM576.237 170C565.676 170 558.41 167.529 553.792 163.264C549.249 159.069 546.438 152.359 546.438 142H536.438C536.438 154.141 539.776 163.931 547.008 170.611C554.165 177.221 564.299 180 576.237 180V170ZM546.438 142C546.438 137.296 546.991 132.23 548.14 126.481L538.335 124.519C537.085 130.77 536.438 136.504 536.438 142H546.438ZM548.14 126.481L571.24 10.9806L561.435 9.01941L538.335 124.519L548.14 126.481ZM566.338 4.99999H506.938V15L566.338 15V4.99999ZM502.036 9.01455L478.636 125.415L488.439 127.385L511.839 10.9854L502.036 9.01455ZM478.627 125.456C477.089 133.455 476.138 141.287 476.138 148.6H486.138C486.138 142.113 486.986 134.945 488.448 127.344L478.627 125.456ZM476.138 148.6C476.138 173.109 484.88 193.461 501.227 207.617C517.488 221.699 540.746 229.2 569.038 229.2V219.2C542.429 219.2 521.737 212.151 507.773 200.058C493.895 188.039 486.138 170.591 486.138 148.6H476.138ZM702.577 220L697.674 219.019L696.478 225H702.577V220ZM744.577 9.99999V4.99999H740.478L739.674 9.01941L744.577 9.99999ZM771.577 172.6L766.672 171.629L765.491 177.6H771.577V172.6ZM794.377 57.4V52.4H790.27L789.472 56.4292L794.377 57.4ZM702.577 225H809.977V215H702.577V225ZM809.977 225C849.542 225 883.595 212.828 907.813 190.69C932.077 168.511 946.077 136.677 946.077 98.2H936.077C936.077 134.123 923.077 163.189 901.066 183.31C879.009 203.472 847.512 215 809.977 215V225ZM946.077 98.2C946.077 69.7315 935.565 46.2202 916.17 29.9107C896.876 13.6863 869.293 4.99999 835.777 4.99999V15C867.662 15 892.728 23.2637 909.734 37.5643C926.639 51.7798 936.077 72.3685 936.077 98.2H946.077ZM835.777 4.99999L744.577 4.99999V15H835.777V4.99999ZM739.674 9.01941L697.674 219.019L707.48 220.981L749.48 10.9806L739.674 9.01941ZM776.482 173.571L799.282 58.3707L789.472 56.4292L766.672 171.629L776.482 173.571ZM794.377 62.4H829.177V52.4H794.377V62.4ZM829.177 62.4C845.544 62.4 857.176 66.3519 864.66 72.9004C872.041 79.3591 876.077 88.9494 876.077 101.8H886.077C886.077 86.7506 881.263 74.1409 871.245 65.3746C861.329 56.698 847.011 52.4 829.177 52.4V62.4ZM876.077 101.8C876.077 120.883 870.176 137.287 859.414 148.872C848.701 160.404 832.767 167.6 811.777 167.6V177.6C835.188 177.6 853.904 169.496 866.741 155.678C879.528 141.913 886.077 122.917 886.077 101.8H876.077ZM811.777 167.6H771.577V177.6H811.777V167.6ZM1132.53 9.99999V4.99999H1128.42L1127.62 9.02661L1132.53 9.99999ZM1116.93 88.6V93.6H1121.03L1121.83 89.5734L1116.93 88.6ZM1036.23 88.6L1031.32 87.6266L1030.14 93.6H1036.23V88.6ZM1051.83 9.99999L1056.73 10.9734L1057.92 4.99999H1051.83V9.99999ZM992.429 9.99999V4.99999H988.33L987.526 9.01941L992.429 9.99999ZM950.429 220L945.526 219.019L944.33 225H950.429V220ZM1009.83 220V225H1013.93L1014.73 220.974L1009.83 220ZM1026.03 138.4V133.4H1021.92L1021.12 137.426L1026.03 138.4ZM1106.73 138.4L1111.63 139.374L1112.82 133.4H1106.73V138.4ZM1090.53 220L1085.62 219.026L1084.44 225H1090.53V220ZM1149.93 220V225H1154.03L1154.83 220.981L1149.93 220ZM1191.93 9.99999L1196.83 10.9806L1198.03 4.99999H1191.93V9.99999ZM1127.62 9.02661L1112.02 87.6266L1121.83 89.5734L1137.43 10.9734L1127.62 9.02661ZM1116.93 83.6H1036.23V93.6H1116.93V83.6ZM1041.13 89.5734L1056.73 10.9734L1046.92 9.02661L1031.32 87.6266L1041.13 89.5734ZM1051.83 4.99999H992.429V15H1051.83V4.99999ZM987.526 9.01941L945.526 219.019L955.332 220.981L997.332 10.9806L987.526 9.01941ZM950.429 225H1009.83V215H950.429V225ZM1014.73 220.974L1030.93 139.374L1021.12 137.426L1004.92 219.026L1014.73 220.974ZM1026.03 143.4H1106.73V133.4H1026.03V143.4ZM1101.82 137.426L1085.62 219.026L1095.43 220.974L1111.63 139.374L1101.82 137.426ZM1090.53 225H1149.93V215H1090.53V225ZM1154.83 220.981L1196.83 10.9806L1187.03 9.01941L1145.03 219.019L1154.83 220.981ZM1191.93 4.99999H1132.53V15H1191.93V4.99999ZM190.4 445L185.503 446.008L186.325 450H190.4V445ZM249.5 445V450H255.851L254.36 443.827L249.5 445ZM198.8 235L203.66 233.827L202.737 230H198.8V235ZM140.3 235V230H137.567L136.091 232.3L140.3 235ZM5.6 445L1.39137 442.3L-3.54733 450H5.6V445ZM68.3 445V450H71.1417L72.5958 447.559L68.3 445ZM92.6 404.2V399.2H89.7583L88.3042 401.641L92.6 404.2ZM182 404.2L186.897 403.192L186.075 399.2H182V404.2ZM118.7 360.4L114.394 357.858L109.942 365.4H118.7V360.4ZM158.9 292.3L163.796 291.286L161.173 278.615L154.594 289.758L158.9 292.3ZM173 360.4V365.4H179.141L177.896 359.386L173 360.4ZM190.4 450H249.5V440H190.4V450ZM254.36 443.827L203.66 233.827L193.94 236.173L244.64 446.173L254.36 443.827ZM198.8 230H140.3V240H198.8V230ZM136.091 232.3L1.39137 442.3L9.80862 447.7L144.509 237.7L136.091 232.3ZM5.6 450H68.3V440H5.6V450ZM72.5958 447.559L96.8958 406.759L88.3042 401.641L64.0042 442.441L72.5958 447.559ZM92.6 409.2H182V399.2H92.6V409.2ZM177.103 405.208L185.503 446.008L195.297 443.992L186.897 403.192L177.103 405.208ZM123.006 362.942L163.206 294.842L154.594 289.758L114.394 357.858L123.006 362.942ZM154.004 293.314L168.104 361.414L177.896 359.386L163.796 291.286L154.004 293.314ZM173 355.4H118.7V365.4H173V355.4ZM449.94 235V230H445.835L445.035 234.027L449.94 235ZM427.14 349.9L422.863 352.491L429.537 363.508L432.044 350.873L427.14 349.9ZM357.54 235L361.816 232.409L360.357 230H357.54V235ZM308.64 235V230H304.541L303.737 234.019L308.64 235ZM266.64 445L261.737 444.019L260.541 450H266.64V445ZM324.84 445V450H328.937L329.742 445.983L324.84 445ZM347.94 329.8L352.224 327.223L345.574 316.167L343.037 328.817L347.94 329.8ZM417.24 445L412.955 447.577L414.413 450H417.24V445ZM466.14 445V450H470.239L471.043 445.981L466.14 445ZM508.14 235L513.043 235.981L514.239 230H508.14V235ZM445.035 234.027L422.235 348.927L432.044 350.873L454.844 235.973L445.035 234.027ZM431.416 347.309L361.816 232.409L353.263 237.59L422.863 352.491L431.416 347.309ZM357.54 230H308.64V240H357.54V230ZM303.737 234.019L261.737 444.019L271.543 445.981L313.543 235.981L303.737 234.019ZM266.64 450H324.84V440H266.64V450ZM329.742 445.983L352.842 330.783L343.037 328.817L319.937 444.017L329.742 445.983ZM343.655 332.377L412.955 447.577L421.524 442.423L352.224 327.223L343.655 332.377ZM417.24 450H466.14V440H417.24V450ZM471.043 445.981L513.043 235.981L503.237 234.019L461.237 444.019L471.043 445.981ZM508.14 230H449.94V240H508.14V230ZM585.739 297.4L590.739 297.452L590.739 297.426V297.4H585.739ZM681.139 292.9L678.455 297.118L683.171 300.119L685.629 295.099L681.139 292.9ZM702.739 248.8L707.229 250.999L709.221 246.932L705.371 244.549L702.739 248.8ZM522.439 382.3L525.116 378.077L520.541 375.177L518.016 379.969L522.439 382.3ZM499.039 426.7L494.616 424.369L492.536 428.315L496.22 430.83L499.039 426.7ZM586.639 454.2C618.131 454.2 644.549 446.602 663.231 432.74C682.043 418.782 692.739 398.64 692.739 374.5H682.739C682.739 395.36 673.635 412.568 657.272 424.71C640.779 436.948 616.647 444.2 586.639 444.2V454.2ZM692.739 374.5C692.739 356.734 685.622 344.24 674.967 335.33C664.56 326.628 650.952 321.484 638.048 317.656C631.569 315.734 625.068 314.091 619.157 312.531C613.172 310.951 607.804 309.459 603.278 307.792C598.694 306.105 595.41 304.389 593.335 302.567C591.427 300.891 590.719 299.31 590.739 297.452L580.739 297.348C580.684 302.69 583.107 306.893 586.736 310.081C590.199 313.122 594.858 315.349 599.822 317.176C604.844 319.025 610.63 320.622 616.604 322.2C622.652 323.796 628.916 325.378 635.205 327.244C647.839 330.991 659.787 335.672 668.552 343.001C677.068 350.123 682.739 359.866 682.739 374.5H692.739ZM590.739 297.4C590.739 293.935 592.654 290.288 597.911 287.257C603.269 284.168 611.761 282 623.539 282V272C610.717 272 600.309 274.332 592.917 278.593C585.424 282.912 580.739 289.465 580.739 297.4H590.739ZM623.539 282C643.408 282 662.852 287.19 678.455 297.118L683.823 288.682C666.426 277.61 645.07 272 623.539 272V282ZM685.629 295.099L707.229 250.999L698.249 246.601L676.649 290.701L685.629 295.099ZM705.371 244.549C685.438 232.209 657.436 225.8 627.139 225.8V235.8C656.242 235.8 682.24 241.991 700.107 253.051L705.371 244.549ZM627.139 225.8C595.357 225.8 568.997 233.394 550.45 247.314C531.767 261.336 521.339 281.562 521.339 305.8H531.339C531.339 284.738 540.262 267.464 556.453 255.311C572.781 243.056 596.821 235.8 627.139 235.8V225.8ZM521.339 305.8C521.339 323.822 528.399 336.58 539.008 345.743C549.384 354.705 562.961 360.068 575.864 364.052C582.344 366.054 588.835 367.758 594.755 369.365C600.744 370.992 606.122 372.513 610.668 374.193C615.271 375.894 618.586 377.608 620.694 379.422C622.645 381.102 623.339 382.648 623.339 384.4H633.339C633.339 379.102 630.846 374.967 627.218 371.844C623.748 368.856 619.095 366.646 614.135 364.813C609.119 362.959 603.34 361.335 597.376 359.715C591.343 358.077 585.084 356.434 578.814 354.498C566.217 350.607 554.294 345.732 545.545 338.175C537.029 330.82 531.339 320.778 531.339 305.8H521.339ZM623.339 384.4C623.339 387.751 621.555 390.931 616.567 393.547C611.415 396.249 603.323 398 592.339 398V408C604.155 408 614.063 406.152 621.211 402.403C628.524 398.569 633.339 392.449 633.339 384.4H623.339ZM592.339 398C569.319 398 545.643 391.087 525.116 378.077L519.762 386.523C541.836 400.513 567.359 408 592.339 408V398ZM518.016 379.969L494.616 424.369L503.462 429.031L526.862 384.631L518.016 379.969ZM496.22 430.83C516.16 444.439 549.92 454.2 586.639 454.2V444.2C551.358 444.2 519.718 434.761 501.858 422.57L496.22 430.83ZM884.677 235V230H880.572L879.773 234.027L884.677 235ZM869.077 313.6V318.6H873.182L873.982 314.573L869.077 313.6ZM788.377 313.6L783.473 312.627L782.287 318.6H788.377V313.6ZM803.977 235L808.882 235.973L810.067 230H803.977V235ZM744.577 235V230H740.478L739.674 234.019L744.577 235ZM702.577 445L697.674 444.019L696.478 450H702.577V445ZM761.977 445V450H766.082L766.882 445.974L761.977 445ZM778.177 363.4V358.4H774.072L773.273 362.426L778.177 363.4ZM858.877 363.4L863.782 364.374L864.968 358.4H858.877V363.4ZM842.677 445L837.773 444.026L836.587 450H842.677V445ZM902.077 445V450H906.176L906.98 445.981L902.077 445ZM944.077 235L948.98 235.981L950.176 230H944.077V235ZM879.773 234.027L864.173 312.627L873.982 314.573L889.582 235.973L879.773 234.027ZM869.077 308.6H788.377V318.6H869.077V308.6ZM793.282 314.573L808.882 235.973L799.073 234.027L783.473 312.627L793.282 314.573ZM803.977 230H744.577V240H803.977V230ZM739.674 234.019L697.674 444.019L707.48 445.981L749.48 235.981L739.674 234.019ZM702.577 450H761.977V440H702.577V450ZM766.882 445.974L783.082 364.374L773.273 362.426L757.073 444.026L766.882 445.974ZM778.177 368.4H858.877V358.4H778.177V368.4ZM853.973 362.426L837.773 444.026L847.582 445.974L863.782 364.374L853.973 362.426ZM842.677 450H902.077V440H842.677V450ZM906.98 445.981L948.98 235.981L939.174 234.019L897.174 444.019L906.98 445.981ZM944.077 230H884.677V240H944.077V230ZM1157.88 354.1L1162.78 355.085L1162.78 355.076L1157.88 354.1ZM1181.58 235L1186.48 235.976L1187.67 230H1181.58V235ZM1123.08 235V230H1118.98L1118.17 234.019L1123.08 235ZM1099.98 350.5L1104.88 351.497L1104.88 351.489L1104.88 351.481L1099.98 350.5ZM1020.78 350.5L1025.68 351.481L1020.78 350.5ZM1043.88 235L1048.78 235.981L1049.98 230H1043.88V235ZM984.477 235V230H980.382L979.575 234.015L984.477 235ZM961.077 351.4L956.175 350.415L956.17 350.435L956.167 350.456L961.077 351.4ZM1046.58 454.2C1078.37 454.2 1104.3 445.849 1123.94 428.953C1143.54 412.085 1156.33 387.175 1162.78 355.085L1152.97 353.115C1146.82 383.725 1134.86 406.365 1117.42 421.372C1100.01 436.351 1076.58 444.2 1046.58 444.2V454.2ZM1162.78 355.076L1186.48 235.976L1176.67 234.024L1152.97 353.124L1162.78 355.076ZM1181.58 230H1123.08V240H1181.58V230ZM1118.17 234.019L1095.07 349.519L1104.88 351.481L1127.98 235.981L1118.17 234.019ZM1095.08 349.503C1091.55 366.834 1086.48 378.13 1079.89 385.085C1073.5 391.824 1065.18 395 1053.78 395V405C1067.27 405 1078.46 401.126 1087.14 391.965C1095.62 383.02 1101.2 369.566 1104.88 351.497L1095.08 349.503ZM1053.78 395C1043.22 395 1035.95 392.529 1031.33 388.264C1026.79 384.069 1023.98 377.359 1023.98 367H1013.98C1013.98 379.141 1017.31 388.931 1024.55 395.611C1031.7 402.221 1041.84 405 1053.78 405V395ZM1023.98 367C1023.98 362.296 1024.53 357.23 1025.68 351.481L1015.87 349.519C1014.62 355.77 1013.98 361.504 1013.98 367H1023.98ZM1025.68 351.481L1048.78 235.981L1038.97 234.019L1015.87 349.519L1025.68 351.481ZM1043.88 230H984.477V240H1043.88V230ZM979.575 234.015L956.175 350.415L965.979 352.385L989.378 235.985L979.575 234.015ZM956.167 350.456C954.628 358.455 953.677 366.287 953.677 373.6H963.677C963.677 367.113 964.525 359.945 965.987 352.344L956.167 350.456ZM953.677 373.6C953.677 398.109 962.419 418.461 978.766 432.617C995.027 446.699 1018.28 454.2 1046.58 454.2V444.2C1019.97 444.2 999.276 437.151 985.312 425.058C971.434 413.039 963.677 395.591 963.677 373.6H953.677Z" fill="#424242"/>
</svg>
