<svg width="360" height="348" viewBox="0 0 360 348" fill="none" xmlns="http://www.w3.org/2000/svg">
<path d="M199.408 180.5V179.5H198.588L198.427 180.304L199.408 180.5ZM183.308 261L182.327 260.804L182.088 262H183.308V261ZM206.078 261V262H206.898L207.059 261.195L206.078 261ZM210.333 239.61V238.61H209.512L209.352 239.415L210.333 239.61ZM221.833 239.61L222.706 239.122L222.419 238.61H221.833V239.61ZM233.793 261L232.92 261.488L233.206 262H233.793V261ZM257.598 261V262H259.314L258.468 260.507L257.598 261ZM243.913 236.85L243.587 235.904L242.45 236.296L243.043 237.343L243.913 236.85ZM213.783 222.015L212.803 221.814L212.557 223.015H213.783V222.015ZM218.613 198.44V197.44H217.797L217.633 198.239L218.613 198.44ZM267.223 206.145C267.223 197.826 264.15 191.112 258.349 186.502C252.58 181.917 244.224 179.5 233.793 179.5V181.5C243.946 181.5 251.805 183.856 257.105 188.068C262.374 192.255 265.223 198.364 265.223 206.145H267.223ZM233.793 179.5H199.408V181.5H233.793V179.5ZM198.427 180.304L182.327 260.804L184.288 261.196L200.388 180.696L198.427 180.304ZM183.308 262H206.078V260H183.308V262ZM207.059 261.195L211.314 239.805L209.352 239.415L205.097 260.805L207.059 261.195ZM210.333 240.61H221.833V238.61H210.333V240.61ZM220.96 240.098L232.92 261.488L234.666 260.512L222.706 239.122L220.96 240.098ZM233.793 262H257.598V260H233.793V262ZM258.468 260.507L244.783 236.357L243.043 237.343L256.728 261.493L258.468 260.507ZM244.238 237.796C258.652 232.833 267.223 221.428 267.223 206.145H265.223C265.223 220.532 257.234 231.207 243.587 235.904L244.238 237.796ZM242.223 208.33C242.223 212.523 240.844 215.643 238.391 217.732C235.914 219.842 232.209 221.015 227.353 221.015V223.015C232.502 223.015 236.731 221.773 239.688 219.254C242.669 216.715 244.223 212.992 244.223 208.33H242.223ZM227.353 221.015H213.783V223.015H227.353V221.015ZM214.762 222.216L219.592 198.641L217.633 198.239L212.803 221.814L214.762 222.216ZM218.613 199.44H230.573V197.44H218.613V199.44ZM230.573 199.44C234.375 199.44 237.291 200.199 239.234 201.643C241.126 203.05 242.223 205.203 242.223 208.33H244.223C244.223 204.672 242.904 201.88 240.427 200.038C238 198.234 234.59 197.44 230.573 197.44V199.44ZM329.615 261L328.635 261.202L328.8 262H329.615V261ZM352.27 261V262H353.54L353.242 260.765L352.27 261ZM332.835 180.5L333.807 180.265L333.622 179.5H332.835V180.5ZM310.41 180.5V179.5H309.863L309.568 179.96L310.41 180.5ZM258.775 261L257.933 260.46L256.945 262H258.775V261ZM282.81 261V262H283.378L283.669 261.512L282.81 261ZM292.125 245.36V244.36H291.556L291.266 244.848L292.125 245.36ZM326.395 245.36L327.374 245.158L327.21 244.36H326.395V245.36ZM302.13 228.57L301.269 228.062L300.378 229.57H302.13V228.57ZM317.54 202.465L318.519 202.262L317.994 199.728L316.679 201.957L317.54 202.465ZM322.945 228.57V229.57H324.173L323.924 228.367L322.945 228.57ZM329.615 262H352.27V260H329.615V262ZM353.242 260.765L333.807 180.265L331.863 180.735L351.298 261.235L353.242 260.765ZM332.835 179.5H310.41V181.5H332.835V179.5ZM309.568 179.96L257.933 260.46L259.616 261.54L311.251 181.04L309.568 179.96ZM258.775 262H282.81V260H258.775V262ZM283.669 261.512L292.984 245.872L291.266 244.848L281.951 260.488L283.669 261.512ZM292.125 246.36H326.395V244.36H292.125V246.36ZM325.415 245.562L328.635 261.202L330.594 260.798L327.374 245.158L325.415 245.562ZM302.991 229.078L318.401 202.973L316.679 201.957L301.269 228.062L302.991 229.078ZM316.56 202.668L321.965 228.773L323.924 228.367L318.519 202.262L316.56 202.668ZM322.945 227.57H302.13V229.57H322.945V227.57ZM91.0679 264.5V263.5H90.2468L90.087 264.305L91.0679 264.5ZM82.3279 308.545L81.4726 309.063L82.8073 311.267L83.3088 308.74L82.3279 308.545ZM55.6479 264.5L56.5032 263.982L56.2113 263.5H55.6479V264.5ZM36.9029 264.5V263.5H36.0831L35.9223 264.304L36.9029 264.5ZM20.8029 345L19.8223 344.804L19.5831 346H20.8029V345ZM43.1129 345V346H43.9323L44.0934 345.197L43.1129 345ZM51.9679 300.84L52.8248 300.325L51.4947 298.113L50.9874 300.643L51.9679 300.84ZM78.5329 345L77.676 345.515L77.9675 346H78.5329V345ZM97.2779 345V346H98.0977L98.2585 345.196L97.2779 345ZM113.378 264.5L114.358 264.696L114.598 263.5H113.378V264.5ZM90.087 264.305L81.347 308.35L83.3088 308.74L92.0488 264.695L90.087 264.305ZM83.1832 308.027L56.5032 263.982L54.7926 265.018L81.4726 309.063L83.1832 308.027ZM55.6479 263.5H36.9029V265.5H55.6479V263.5ZM35.9223 264.304L19.8223 344.804L21.7835 345.196L37.8835 264.696L35.9223 264.304ZM20.8029 346H43.1129V344H20.8029V346ZM44.0934 345.197L52.9484 301.037L50.9874 300.643L42.1324 344.803L44.0934 345.197ZM51.111 301.355L77.676 345.515L79.3898 344.485L52.8248 300.325L51.111 301.355ZM78.5329 346H97.2779V344H78.5329V346ZM98.2585 345.196L114.358 264.696L112.397 264.304L96.2973 344.804L98.2585 345.196ZM113.378 263.5H91.0679V265.5H113.378V263.5ZM167.734 316.365L166.754 316.167L166.753 316.172L167.734 316.365ZM178.199 264.5L179.18 264.698L179.421 263.5H178.199V264.5ZM127.829 264.5V263.5H127.012L126.849 264.301L127.829 264.5ZM124.264 282.095L123.284 281.896L123.041 283.095H124.264V282.095ZM152.094 282.095L153.075 282.289L153.311 281.095H152.094V282.095ZM145.079 317.63L146.059 317.832L146.06 317.824L145.079 317.63ZM120.239 320.275L121.077 319.729L120.42 318.721L119.549 319.551L120.239 320.275ZM105.519 334.305L104.829 333.581L104.219 334.163L104.689 334.862L105.519 334.305ZM133.119 347.61C142.74 347.61 150.564 345.569 156.544 340.578C162.52 335.591 166.506 327.782 168.715 316.558L166.753 316.172C164.593 327.143 160.758 334.456 155.263 339.043C149.772 343.626 142.473 345.61 133.119 345.61V347.61ZM168.715 316.563L179.18 264.698L177.219 264.302L166.754 316.167L168.715 316.563ZM178.199 263.5H127.829V265.5H178.199V263.5ZM126.849 264.301L123.284 281.896L125.244 282.294L128.809 264.699L126.849 264.301ZM124.264 283.095H152.094V281.095H124.264V283.095ZM151.113 281.901L144.098 317.436L146.06 317.824L153.075 282.289L151.113 281.901ZM144.1 317.428C143.379 320.923 142.099 323.408 140.36 325.018C138.638 326.613 136.367 327.44 133.464 327.44V329.44C136.772 329.44 139.561 328.484 141.719 326.486C143.862 324.502 145.285 321.582 146.059 317.832L144.1 317.428ZM133.464 327.44C128.377 327.44 124.401 324.826 121.077 319.729L119.402 320.821C122.977 326.304 127.511 329.44 133.464 329.44V327.44ZM119.549 319.551L104.829 333.581L106.209 335.029L120.929 320.999L119.549 319.551ZM104.689 334.862C110.333 343.269 120.015 347.61 133.119 347.61V345.61C120.463 345.61 111.515 341.441 106.349 333.748L104.689 334.862ZM236.963 345L235.984 345.202L236.148 346H236.963V345ZM259.618 345V346H260.889L260.59 344.765L259.618 345ZM240.183 264.5L241.155 264.265L240.971 263.5H240.183V264.5ZM217.758 264.5V263.5H217.212L216.917 263.96L217.758 264.5ZM166.123 345L165.282 344.46L164.294 346H166.123V345ZM190.158 345V346H190.727L191.018 345.512L190.158 345ZM199.473 329.36V328.36H198.905L198.614 328.848L199.473 329.36ZM233.743 329.36L234.723 329.158L234.558 328.36H233.743V329.36ZM209.478 312.57L208.617 312.062L207.727 313.57H209.478V312.57ZM224.888 286.465L225.868 286.262L225.343 283.728L224.027 285.957L224.888 286.465ZM230.293 312.57V313.57H231.522L231.273 312.367L230.293 312.57ZM236.963 346H259.618V344H236.963V346ZM260.59 344.765L241.155 264.265L239.211 264.735L258.646 345.235L260.59 344.765ZM240.183 263.5H217.758V265.5H240.183V263.5ZM216.917 263.96L165.282 344.46L166.965 345.54L218.6 265.04L216.917 263.96ZM166.123 346H190.158V344H166.123V346ZM191.018 345.512L200.333 329.872L198.614 328.848L189.299 344.488L191.018 345.512ZM199.473 330.36H233.743V328.36H199.473V330.36ZM232.764 329.562L235.984 345.202L237.943 344.798L234.723 329.158L232.764 329.562ZM210.34 313.078L225.75 286.973L224.027 285.957L208.617 312.062L210.34 313.078ZM223.909 286.668L229.314 312.773L231.273 312.367L225.868 286.262L223.909 286.668ZM230.293 311.57H209.478V313.57H230.293V311.57ZM336.454 264.5V263.5H335.633L335.473 264.305L336.454 264.5ZM327.714 308.545L326.858 309.063L328.193 311.267L328.695 308.74L327.714 308.545ZM301.034 264.5L301.889 263.982L301.597 263.5H301.034V264.5ZM282.289 264.5V263.5H281.469L281.308 264.304L282.289 264.5ZM266.189 345L265.208 344.804L264.969 346H266.189V345ZM288.499 345V346H289.318L289.479 345.197L288.499 345ZM297.354 300.84L298.211 300.325L296.88 298.113L296.373 300.643L297.354 300.84ZM323.919 345L323.062 345.515L323.353 346H323.919V345ZM342.664 345V346H343.483L343.644 345.196L342.664 345ZM358.764 264.5L359.744 264.696L359.983 263.5H358.764V264.5ZM335.473 264.305L326.733 308.35L328.695 308.74L337.435 264.695L335.473 264.305ZM328.569 308.027L301.889 263.982L300.178 265.018L326.858 309.063L328.569 308.027ZM301.034 263.5H282.289V265.5H301.034V263.5ZM281.308 264.304L265.208 344.804L267.169 345.196L283.269 264.696L281.308 264.304ZM266.189 346H288.499V344H266.189V346ZM289.479 345.197L298.334 301.037L296.373 300.643L287.518 344.803L289.479 345.197ZM296.497 301.355L323.062 345.515L324.776 344.485L298.211 300.325L296.497 301.355ZM323.919 346H342.664V344H323.919V346ZM343.644 345.196L359.744 264.696L357.783 264.304L341.683 344.804L343.644 345.196ZM358.764 263.5H336.454V265.5H358.764V263.5Z" fill="#7B0100" fill-opacity="0.6"/>
<path opacity="0.5" d="M35.51 27.42L36.51 27.4304V27.42H35.51ZM72.08 25.695L71.5431 26.5387L72.4863 27.1389L72.9781 26.1349L72.08 25.695ZM80.36 8.78999L81.2581 9.22986L81.6565 8.41646L80.8864 7.93973L80.36 8.78999ZM11.245 59.965L11.7803 59.1204L10.8654 58.5405L10.3603 59.4988L11.245 59.965ZM2.275 76.985L1.39034 76.5188L0.974387 77.308L1.71126 77.8109L2.275 76.985ZM35.855 86.61C47.7909 86.61 57.7083 83.7292 64.669 78.5643C71.6559 73.3801 75.61 65.9279 75.61 56.975H73.61C73.61 65.2721 69.9742 72.1374 63.4772 76.9582C56.9542 81.7983 47.4941 84.61 35.855 84.61V86.61ZM75.61 56.975C75.61 50.4519 73.0144 45.9145 69.1259 42.663C65.2871 39.453 60.2229 37.5237 55.3013 36.0638C52.8348 35.3322 50.3647 34.708 48.0862 34.1065C45.793 33.5011 43.697 32.9195 41.9164 32.2639C40.1243 31.6041 38.7394 30.8996 37.817 30.0895C36.9277 29.3084 36.4992 28.462 36.5099 27.4304L34.5101 27.4096C34.4921 29.138 35.2638 30.5089 36.4972 31.5921C37.6973 32.6462 39.3572 33.4529 41.2253 34.1408C43.105 34.8328 45.2846 35.4354 47.5757 36.0402C49.8815 36.6489 52.3043 37.2609 54.7325 37.9812C59.6002 39.4251 64.3326 41.262 67.843 44.1973C71.3037 47.0911 73.61 51.0781 73.61 56.975H75.61ZM36.51 27.42C36.51 25.682 37.4979 24.0175 39.7182 22.7376C41.9586 21.4461 45.3894 20.6 50 20.6V18.6C45.1806 18.6 41.3664 19.4789 38.7193 21.0049C36.0521 22.5425 34.51 24.788 34.51 27.42H36.51ZM50 20.6C57.7688 20.6 65.3977 22.6279 71.5431 26.5387L72.6169 24.8513C66.1123 20.7121 58.1012 18.6 50 18.6V20.6ZM72.9781 26.1349L81.2581 9.22986L79.4619 8.35013L71.1819 25.2551L72.9781 26.1349ZM80.8864 7.93973C73.4348 3.32687 62.8843 0.889995 51.38 0.889995V2.88999C62.6457 2.88999 72.7952 5.28312 79.8336 9.64026L80.8864 7.93973ZM51.38 0.889995C39.331 0.889995 29.4391 3.76996 22.5329 8.95333C15.5992 14.1573 11.74 21.6399 11.74 30.64H13.74C13.74 22.2751 17.2983 15.3827 23.7334 10.5529C30.1959 5.70253 39.624 2.88999 51.38 2.88999V0.889995ZM11.74 30.64C11.74 37.2693 14.3208 41.911 18.1957 45.2579C22.024 48.5645 27.077 50.5754 31.9949 52.0942C34.4598 52.8554 36.9267 53.503 39.2064 54.1221C41.5 54.745 43.5982 55.3375 45.3839 55.9975C47.181 56.6617 48.5746 57.3641 49.5075 58.1672C50.409 58.9434 50.84 59.7733 50.84 60.77H52.84C52.84 59.0642 52.0491 57.7163 50.8124 56.6516C49.607 55.6138 47.9459 54.8122 46.0773 54.1215C44.1975 53.4267 42.0191 52.8135 39.7306 52.192C37.4283 51.5668 35.0077 50.9314 32.5851 50.1833C27.728 48.6833 23.006 46.7699 19.503 43.7443C16.0467 40.759 13.74 36.6607 13.74 30.64H11.74ZM50.84 60.77C50.84 62.4853 49.8781 63.9738 47.7531 65.0881C45.5952 66.2197 42.3268 66.9 38.04 66.9V68.9C42.4932 68.9 46.1248 68.2003 48.6819 66.8594C51.2719 65.5012 52.84 63.4247 52.84 60.77H50.84ZM38.04 66.9C29.0359 66.9 19.7907 64.1973 11.7803 59.1204L10.7097 60.8096C19.0293 66.0827 28.6441 68.9 38.04 68.9V66.9ZM10.3603 59.4988L1.39034 76.5188L3.15966 77.4512L12.1297 60.4312L10.3603 59.4988ZM1.71126 77.8109C9.16419 82.8979 21.9112 86.61 35.855 86.61V84.61C22.1988 84.61 9.87581 80.9621 2.83874 76.159L1.71126 77.8109ZM150.103 3.49999V2.49999H149.282L149.122 3.30532L150.103 3.49999ZM144.123 33.63V34.63H144.944L145.104 33.8247L144.123 33.63ZM113.188 33.63L112.207 33.4353L111.97 34.63H113.188V33.63ZM119.168 3.49999L120.149 3.69467L120.386 2.49999H119.168V3.49999ZM96.398 3.49999V2.49999H95.5782L95.4174 3.30388L96.398 3.49999ZM80.298 84L79.3174 83.8039L79.0782 85H80.298V84ZM103.068 84V85H103.889L104.049 84.1947L103.068 84ZM109.278 52.72V51.72H108.457L108.297 52.5253L109.278 52.72ZM140.213 52.72L141.194 52.9147L141.431 51.72H140.213V52.72ZM134.003 84L133.022 83.8053L132.785 85H134.003V84ZM156.773 84V85H157.593L157.754 84.1961L156.773 84ZM172.873 3.49999L173.854 3.69611L174.093 2.49999H172.873V3.49999ZM149.122 3.30532L143.142 33.4353L145.104 33.8247L151.084 3.69467L149.122 3.30532ZM144.123 32.63H113.188V34.63H144.123V32.63ZM114.169 33.8247L120.149 3.69467L118.187 3.30532L112.207 33.4353L114.169 33.8247ZM119.168 2.49999L96.398 2.49999V4.49999H119.168V2.49999ZM95.4174 3.30388L79.3174 83.8039L81.2786 84.1961L97.3786 3.69611L95.4174 3.30388ZM80.298 85H103.068V83H80.298V85ZM104.049 84.1947L110.259 52.9147L108.297 52.5253L102.087 83.8053L104.049 84.1947ZM109.278 53.72H140.213V51.72H109.278V53.72ZM139.232 52.5253L133.022 83.8053L134.984 84.1947L141.194 52.9147L139.232 52.5253ZM134.003 85H156.773V83H134.003V85ZM157.754 84.1961L173.854 3.69611L171.892 3.30388L155.792 83.8039L157.754 84.1961ZM172.873 2.49999H150.103V4.49999H172.873V2.49999ZM254.829 49.155L255.81 49.352L255.81 49.3502L254.829 49.155ZM263.914 3.49999L264.895 3.69516L265.133 2.49999H263.914V3.49999ZM241.489 3.49999V2.49999H240.67L240.509 3.30388L241.489 3.49999ZM232.634 47.775L233.614 47.9743L233.615 47.9711L232.634 47.775ZM202.274 47.775L203.255 47.9711L203.255 47.9711L202.274 47.775ZM211.129 3.49999L212.11 3.69611L212.349 2.49999H211.129V3.49999ZM188.359 3.49999V2.49999H187.54L187.379 3.30291L188.359 3.49999ZM179.389 48.12L178.409 47.9229L178.407 47.9312L179.389 48.12ZM212.164 86.61C224.188 86.61 233.897 83.4548 241.222 77.1537C248.539 70.8583 253.365 61.5175 255.81 49.352L253.849 48.958C251.464 60.8275 246.802 69.7142 239.917 75.6376C233.039 81.5552 223.831 84.61 212.164 84.61V86.61ZM255.81 49.3502L264.895 3.69516L262.934 3.30483L253.849 48.9598L255.81 49.3502ZM263.914 2.49999H241.489V4.49999H263.914V2.49999ZM240.509 3.30388L231.654 47.5789L233.615 47.9711L242.47 3.69611L240.509 3.30388ZM231.654 47.5757C230.289 54.2867 228.299 58.8147 225.598 61.6632C222.938 64.4686 219.488 65.75 214.924 65.75V67.75C219.906 67.75 223.93 66.3289 227.049 63.0393C230.127 59.7928 232.219 54.8333 233.614 47.9743L231.654 47.5757ZM214.924 65.75C210.75 65.75 207.701 64.7745 205.698 62.9248C203.71 61.0887 202.584 58.2344 202.584 54.1H200.584C200.584 58.5906 201.816 62.0613 204.342 64.394C206.852 66.713 210.474 67.75 214.924 67.75V65.75ZM202.584 54.1C202.584 52.2241 202.805 50.221 203.255 47.9711L201.294 47.5789C200.824 49.929 200.584 52.0659 200.584 54.1H202.584ZM203.255 47.9711L212.11 3.69611L210.149 3.30388L201.294 47.5789L203.255 47.9711ZM211.129 2.49999H188.359V4.49999H211.129V2.49999ZM187.379 3.30291L178.409 47.9229L180.37 48.3171L189.34 3.69708L187.379 3.30291ZM178.407 47.9312C177.825 50.9611 177.469 53.9024 177.469 56.63H179.469C179.469 54.0676 179.804 51.2589 180.371 48.3088L178.407 47.9312ZM177.469 56.63C177.469 65.7943 180.73 73.3297 186.77 78.5603C192.793 83.7761 201.474 86.61 212.164 86.61V84.61C201.81 84.61 193.643 81.8664 188.08 77.0484C182.533 72.2453 179.469 65.2907 179.469 56.63H177.469ZM263.355 84L262.374 83.8039L262.135 85H263.355V84ZM279.455 3.49999V2.49999H278.635L278.474 3.30388L279.455 3.49999ZM289.805 65.83L288.824 65.6358L288.587 66.83H289.805V65.83ZM298.545 21.67V20.67H297.723L297.564 21.4758L298.545 21.67ZM263.355 85H304.525V83H263.355V85ZM304.525 85C319.505 85 332.325 80.3931 341.41 72.0881C350.505 63.7746 355.78 51.8254 355.78 37.31H353.78C353.78 51.3146 348.705 62.7104 340.061 70.6119C331.407 78.5219 319.099 83 304.525 83V85ZM355.78 37.31C355.78 26.6388 351.849 17.894 344.642 11.834C337.456 5.791 327.113 2.49999 314.415 2.49999V4.49999C326.787 4.49999 336.626 7.70649 343.355 13.3647C350.063 19.006 353.78 27.1662 353.78 37.31H355.78ZM314.415 2.49999H279.455V4.49999H314.415V2.49999ZM278.474 3.30388L262.374 83.8039L264.335 84.1961L280.435 3.69611L278.474 3.30388ZM290.786 66.0241L299.526 21.8641L297.564 21.4758L288.824 65.6358L290.786 66.0241ZM298.545 22.67H311.885V20.67H298.545V22.67ZM311.885 22.67C318.293 22.67 322.998 24.2166 326.09 26.9219C329.161 29.6093 330.78 33.5624 330.78 38.69H332.78C332.78 33.1226 331.006 28.5657 327.407 25.4168C323.829 22.2859 318.586 20.67 311.885 20.67V22.67ZM330.78 38.69C330.78 46.1916 328.458 52.7174 324.147 57.3581C319.846 61.9883 313.483 64.83 305.215 64.83V66.83C313.967 66.83 320.886 63.8067 325.612 58.7194C330.329 53.6426 332.78 46.5984 332.78 38.69H330.78ZM305.215 64.83H289.805V66.83H305.215V64.83ZM75.645 89.5V88.5H74.824L74.6641 89.3053L75.645 89.5ZM69.665 119.63V120.63H70.486L70.6459 119.825L69.665 119.63ZM38.73 119.63L37.7491 119.435L37.512 120.63H38.73V119.63ZM44.71 89.5L45.6909 89.6947L45.928 88.5H44.71V89.5ZM21.94 89.5V88.5H21.1202L20.9594 89.3039L21.94 89.5ZM5.84 170L4.85942 169.804L4.6202 171H5.84V170ZM28.61 170V171H29.431L29.5909 170.195L28.61 170ZM34.82 138.72V137.72H33.999L33.8391 138.525L34.82 138.72ZM65.755 138.72L66.7359 138.915L66.973 137.72H65.755V138.72ZM59.545 170L58.5641 169.805L58.327 171H59.545V170ZM82.315 170V171H83.1348L83.2956 170.196L82.315 170ZM98.415 89.5L99.3956 89.6961L99.6348 88.5H98.415V89.5ZM74.6641 89.3053L68.6841 119.435L70.6459 119.825L76.6259 89.6947L74.6641 89.3053ZM69.665 118.63H38.73V120.63H69.665V118.63ZM39.7109 119.825L45.6909 89.6947L43.7291 89.3053L37.7491 119.435L39.7109 119.825ZM44.71 88.5H21.94V90.5H44.71V88.5ZM20.9594 89.3039L4.85942 169.804L6.82058 170.196L22.9206 89.6961L20.9594 89.3039ZM5.84 171H28.61V169H5.84V171ZM29.5909 170.195L35.8009 138.915L33.8391 138.525L27.6291 169.805L29.5909 170.195ZM34.82 139.72H65.755V137.72H34.82V139.72ZM64.7741 138.525L58.5641 169.805L60.5259 170.195L66.7359 138.915L64.7741 138.525ZM59.545 171H82.315V169H59.545V171ZM83.2956 170.196L99.3956 89.6961L97.4344 89.3039L81.3344 169.804L83.2956 170.196ZM98.415 88.5H75.645V90.5H98.415V88.5ZM159.671 170L158.692 170.202L158.856 171H159.671V170ZM182.326 170V171H183.597L183.298 169.765L182.326 170ZM162.891 89.5L163.863 89.2653L163.679 88.5H162.891V89.5ZM140.466 89.5V88.5H139.92L139.625 88.9601L140.466 89.5ZM88.8314 170L87.9896 169.46L87.0019 171H88.8314V170ZM112.866 170V171H113.435L113.726 170.512L112.866 170ZM122.181 154.36V153.36H121.613L121.322 153.848L122.181 154.36ZM156.451 154.36L157.431 154.158L157.266 153.36H156.451V154.36ZM132.186 137.57L131.325 137.062L130.435 138.57H132.186V137.57ZM147.596 111.465L148.576 111.262L148.051 108.728L146.735 110.957L147.596 111.465ZM153.001 137.57V138.57H154.23L153.981 137.367L153.001 137.57ZM159.671 171H182.326V169H159.671V171ZM183.298 169.765L163.863 89.2653L161.919 89.7347L181.354 170.235L183.298 169.765ZM162.891 88.5H140.466V90.5H162.891V88.5ZM139.625 88.9601L87.9896 169.46L89.6731 170.54L141.308 90.0399L139.625 88.9601ZM88.8314 171H112.866V169H88.8314V171ZM113.726 170.512L123.041 154.872L121.322 153.848L112.007 169.488L113.726 170.512ZM122.181 155.36H156.451V153.36H122.181V155.36ZM155.472 154.562L158.692 170.202L160.651 169.798L157.431 154.158L155.472 154.562ZM133.048 138.078L148.458 111.973L146.735 110.957L131.325 137.062L133.048 138.078ZM146.617 111.668L152.022 137.773L153.981 137.367L148.576 111.262L146.617 111.668ZM153.001 136.57H132.186V138.57H153.001V136.57ZM259.162 89.5V88.5H258.341L258.181 89.3054L259.162 89.5ZM250.422 133.545L249.566 134.063L250.901 136.267L251.403 133.74L250.422 133.545ZM223.742 89.5L224.597 88.9819L224.305 88.5H223.742V89.5ZM204.997 89.5V88.5H204.177L204.016 89.3039L204.997 89.5ZM188.897 170L187.916 169.804L187.677 171H188.897V170ZM211.207 170V171H212.026L212.187 170.197L211.207 170ZM220.062 125.84L220.919 125.325L219.588 123.113L219.081 125.643L220.062 125.84ZM246.627 170L245.77 170.515L246.061 171H246.627V170ZM265.372 170V171H266.191L266.352 170.196L265.372 170ZM281.472 89.5L282.452 89.6961L282.691 88.5H281.472V89.5ZM258.181 89.3054L249.441 133.35L251.403 133.74L260.143 89.6946L258.181 89.3054ZM251.277 133.027L224.597 88.9819L222.886 90.0181L249.566 134.063L251.277 133.027ZM223.742 88.5H204.997V90.5H223.742V88.5ZM204.016 89.3039L187.916 169.804L189.877 170.196L205.977 89.6961L204.016 89.3039ZM188.897 171H211.207V169H188.897V171ZM212.187 170.197L221.042 126.037L219.081 125.643L210.226 169.803L212.187 170.197ZM219.205 126.355L245.77 170.515L247.484 169.485L220.919 125.325L219.205 126.355ZM246.627 171H265.372V169H246.627V171ZM266.352 170.196L282.452 89.6961L280.491 89.3039L264.391 169.804L266.352 170.196ZM281.472 88.5H259.162V90.5H281.472V88.5ZM311.218 113.42L312.218 113.43V113.42H311.218ZM347.788 111.695L347.251 112.539L348.194 113.139L348.686 112.135L347.788 111.695ZM356.068 94.79L356.966 95.2299L357.364 94.4165L356.594 93.9397L356.068 94.79ZM286.953 145.965L287.488 145.12L286.573 144.54L286.068 145.499L286.953 145.965ZM277.983 162.985L277.098 162.519L276.682 163.308L277.419 163.811L277.983 162.985ZM311.563 172.61C323.499 172.61 333.416 169.729 340.377 164.564C347.364 159.38 351.318 151.928 351.318 142.975H349.318C349.318 151.272 345.682 158.137 339.185 162.958C332.662 167.798 323.202 170.61 311.563 170.61V172.61ZM351.318 142.975C351.318 136.452 348.722 131.915 344.834 128.663C340.995 125.453 335.931 123.524 331.009 122.064C328.543 121.332 326.073 120.708 323.794 120.106C321.501 119.501 319.405 118.92 317.624 118.264C315.832 117.604 314.447 116.9 313.525 116.089C312.636 115.308 312.207 114.462 312.218 113.43L310.218 113.41C310.2 115.138 310.972 116.509 312.205 117.592C313.405 118.646 315.065 119.453 316.933 120.141C318.813 120.833 320.993 121.435 323.284 122.04C325.589 122.649 328.012 123.261 330.441 123.981C335.308 125.425 340.041 127.262 343.551 130.197C347.012 133.091 349.318 137.078 349.318 142.975H351.318ZM312.218 113.42C312.218 111.682 313.206 110.018 315.426 108.738C317.667 107.446 321.097 106.6 325.708 106.6V104.6C320.889 104.6 317.074 105.479 314.427 107.005C311.76 108.542 310.218 110.788 310.218 113.42H312.218ZM325.708 106.6C333.477 106.6 341.106 108.628 347.251 112.539L348.325 110.851C341.82 106.712 333.809 104.6 325.708 104.6V106.6ZM348.686 112.135L356.966 95.2299L355.17 94.3501L346.89 111.255L348.686 112.135ZM356.594 93.9397C349.143 89.3269 338.592 86.89 327.088 86.89V88.89C338.354 88.89 348.503 91.2831 355.542 95.6403L356.594 93.9397ZM327.088 86.89C315.039 86.89 305.147 89.77 298.241 94.9533C291.307 100.157 287.448 107.64 287.448 116.64H289.448C289.448 108.275 293.006 101.383 299.441 96.5529C305.904 91.7025 315.332 88.89 327.088 88.89V86.89ZM287.448 116.64C287.448 123.269 290.029 127.911 293.904 131.258C297.732 134.564 302.785 136.575 307.703 138.094C310.168 138.855 312.635 139.503 314.914 140.122C317.208 140.745 319.306 141.337 321.092 141.998C322.889 142.662 324.283 143.364 325.215 144.167C326.117 144.943 326.548 145.773 326.548 146.77H328.548C328.548 145.064 327.757 143.716 326.52 142.652C325.315 141.614 323.654 140.812 321.785 140.122C319.905 139.427 317.727 138.814 315.439 138.192C313.136 137.567 310.716 136.931 308.293 136.183C303.436 134.683 298.714 132.77 295.211 129.744C291.755 126.759 289.448 122.661 289.448 116.64H287.448ZM326.548 146.77C326.548 148.485 325.586 149.974 323.461 151.088C321.303 152.22 318.035 152.9 313.748 152.9V154.9C318.201 154.9 321.833 154.2 324.39 152.859C326.98 151.501 328.548 149.425 328.548 146.77H326.548ZM313.748 152.9C304.744 152.9 295.499 150.197 287.488 145.12L286.418 146.81C294.737 152.083 304.352 154.9 313.748 154.9V152.9ZM286.068 145.499L277.098 162.519L278.868 163.451L287.838 146.431L286.068 145.499ZM277.419 163.811C284.872 168.898 297.619 172.61 311.563 172.61V170.61C297.907 170.61 285.584 166.962 278.547 162.159L277.419 163.811ZM75.645 175.5V174.5H74.824L74.6641 175.305L75.645 175.5ZM69.665 205.63V206.63H70.486L70.6459 205.825L69.665 205.63ZM38.73 205.63L37.7491 205.435L37.512 206.63H38.73V205.63ZM44.71 175.5L45.6909 175.695L45.928 174.5H44.71V175.5ZM21.94 175.5V174.5H21.1202L20.9594 175.304L21.94 175.5ZM5.84 256L4.85942 255.804L4.6202 257H5.84V256ZM28.61 256V257H29.431L29.5909 256.195L28.61 256ZM34.82 224.72V223.72H33.999L33.8391 224.525L34.82 224.72ZM65.755 224.72L66.7359 224.915L66.973 223.72H65.755V224.72ZM59.545 256L58.5641 255.805L58.327 257H59.545V256ZM82.315 256V257H83.1348L83.2956 256.196L82.315 256ZM98.415 175.5L99.3956 175.696L99.6348 174.5H98.415V175.5ZM74.6641 175.305L68.6841 205.435L70.6459 205.825L76.6259 175.695L74.6641 175.305ZM69.665 204.63H38.73V206.63H69.665V204.63ZM39.7109 205.825L45.6909 175.695L43.7291 175.305L37.7491 205.435L39.7109 205.825ZM44.71 174.5H21.94V176.5H44.71V174.5ZM20.9594 175.304L4.85942 255.804L6.82058 256.196L22.9206 175.696L20.9594 175.304ZM5.84 257H28.61V255H5.84V257ZM29.5909 256.195L35.8009 224.915L33.8391 224.525L27.6291 255.805L29.5909 256.195ZM34.82 225.72H65.755V223.72H34.82V225.72ZM64.7741 224.525L58.5641 255.805L60.5259 256.195L66.7359 224.915L64.7741 224.525ZM59.545 257H82.315V255H59.545V257ZM83.2956 256.196L99.3956 175.696L97.4344 175.304L81.3344 255.804L83.2956 256.196ZM98.415 174.5H75.645V176.5H98.415V174.5ZM180.371 221.155L181.352 221.352L181.352 221.35L180.371 221.155ZM189.456 175.5L190.437 175.695L190.675 174.5H189.456V175.5ZM167.031 175.5V174.5H166.212L166.051 175.304L167.031 175.5ZM158.176 219.775L159.156 219.974L159.157 219.971L158.176 219.775ZM127.816 219.775L128.797 219.971L128.797 219.971L127.816 219.775ZM136.671 175.5L137.652 175.696L137.891 174.5H136.671V175.5ZM113.901 175.5V174.5H113.082L112.921 175.303L113.901 175.5ZM104.931 220.12L103.951 219.923L103.949 219.931L104.931 220.12ZM137.706 258.61C149.73 258.61 159.439 255.455 166.764 249.154C174.081 242.858 178.907 233.517 181.352 221.352L179.391 220.958C177.006 232.828 172.344 241.714 165.459 247.638C158.581 253.555 149.373 256.61 137.706 256.61V258.61ZM181.352 221.35L190.437 175.695L188.476 175.305L179.391 220.96L181.352 221.35ZM189.456 174.5H167.031V176.5H189.456V174.5ZM166.051 175.304L157.196 219.579L159.157 219.971L168.012 175.696L166.051 175.304ZM157.196 219.576C155.831 226.287 153.841 230.815 151.14 233.663C148.48 236.469 145.03 237.75 140.466 237.75V239.75C145.448 239.75 149.472 238.329 152.591 235.039C155.669 231.793 157.761 226.833 159.156 219.974L157.196 219.576ZM140.466 237.75C136.292 237.75 133.243 236.774 131.24 234.925C129.252 233.089 128.126 230.234 128.126 226.1H126.126C126.126 230.591 127.358 234.061 129.884 236.394C132.394 238.713 136.016 239.75 140.466 239.75V237.75ZM128.126 226.1C128.126 224.224 128.347 222.221 128.797 219.971L126.836 219.579C126.366 221.929 126.126 224.066 126.126 226.1H128.126ZM128.797 219.971L137.652 175.696L135.691 175.304L126.836 219.579L128.797 219.971ZM136.671 174.5H113.901V176.5H136.671V174.5ZM112.921 175.303L103.951 219.923L105.912 220.317L114.882 175.697L112.921 175.303ZM103.949 219.931C103.367 222.961 103.011 225.902 103.011 228.63H105.011C105.011 226.068 105.346 223.259 105.913 220.309L103.949 219.931ZM103.011 228.63C103.011 237.794 106.272 245.33 112.312 250.56C118.335 255.776 127.016 258.61 137.706 258.61V256.61C127.352 256.61 119.185 253.866 113.622 249.048C108.075 244.245 105.011 237.291 105.011 228.63H103.011Z" fill="#424242"/>
</svg>
