<svg width="331" height="46" viewBox="0 0 331 46" fill="none" xmlns="http://www.w3.org/2000/svg">
<path opacity="0.5" d="M10.14 2V0.999997H9.3202L9.15942 1.80388L10.14 2ZM1.74 44L0.759419 43.8039L0.520196 45H1.74V44ZM11.52 44V45H12.3423L12.5012 44.1932L11.52 44ZM13.8 32.42V31.42H12.9777L12.8188 32.2268L13.8 32.42ZM15.36 24.5L14.3797 24.3023L14.1382 25.5H15.36V24.5ZM18.3 9.92V8.92H17.4815L17.3197 9.72233L18.3 9.92ZM27.12 0.999997H10.14V3H27.12V0.999997ZM9.15942 1.80388L0.759419 43.8039L2.72058 44.1961L11.1206 2.19611L9.15942 1.80388ZM1.74 45H11.52V43H1.74V45ZM12.5012 44.1932L14.7812 32.6132L12.8188 32.2268L10.5388 43.8068L12.5012 44.1932ZM13.8 33.42H23.16V31.42H13.8V33.42ZM23.16 33.42C29.5985 33.42 34.9503 31.71 38.7098 28.5172C42.4879 25.3087 44.56 20.6836 44.56 15.08H42.56C42.56 20.1564 40.7021 24.2013 37.4152 26.9928C34.1097 29.8 29.2615 31.42 23.16 31.42V33.42ZM44.56 15.08C44.56 10.7074 42.9674 7.1337 39.903 4.67724C36.8692 2.24538 32.5085 0.999997 27.12 0.999997V3C32.2315 3 36.0908 4.18461 38.652 6.23775C41.1826 8.26629 42.56 11.2326 42.56 15.08H44.56ZM23.58 23.5H15.36V25.5H23.58V23.5ZM16.3403 24.6977L19.2803 10.1177L17.3197 9.72233L14.3797 24.3023L16.3403 24.6977ZM18.3 10.92H25.92V8.92H18.3V10.92ZM25.92 10.92C28.2756 10.92 29.9779 11.3839 31.0693 12.1932C32.1094 12.9645 32.72 14.1425 32.72 15.92H34.72C34.72 13.6175 33.8906 11.7955 32.2607 10.5868C30.6821 9.41612 28.4844 8.92 25.92 8.92V10.92ZM32.72 15.92C32.72 18.4729 31.8796 20.3126 30.4163 21.5351C28.9251 22.781 26.6505 23.5 23.58 23.5V25.5C26.9295 25.5 29.7249 24.719 31.6987 23.0699C33.7004 21.3974 34.72 18.9471 34.72 15.92H32.72ZM53.4994 2V0.999997H52.6796L52.5188 1.80388L53.4994 2ZM45.0994 44L44.1188 43.8039L43.8796 45H45.0994V44ZM54.8794 44V45H55.7L55.8601 44.1952L54.8794 44ZM57.2194 32.24V31.24H56.3988L56.2386 32.0448L57.2194 32.24ZM65.4994 32.24L66.3714 31.7506L66.0849 31.24H65.4994V32.24ZM72.0994 44L71.2273 44.4894L71.5139 45H72.0994V44ZM82.3594 44V45H84.0727L83.2301 43.5082L82.3594 44ZM75.0394 31.04L74.7415 30.0854L73.5599 30.454L74.1687 31.5318L75.0394 31.04ZM58.7194 24.5L57.7391 24.3023L57.4976 25.5H58.7194V24.5ZM61.6594 9.92V8.92H60.8409L60.6791 9.72233L61.6594 9.92ZM88.0394 15.02C88.0394 10.6436 86.4289 7.0844 83.3563 4.64439C80.3156 2.22972 75.9564 0.999997 70.5994 0.999997V3C75.6823 3 79.5432 4.17027 82.1125 6.21061C84.6499 8.2256 86.0394 11.1764 86.0394 15.02H88.0394ZM70.5994 0.999997H53.4994V3H70.5994V0.999997ZM52.5188 1.80388L44.1188 43.8039L46.08 44.1961L54.48 2.19611L52.5188 1.80388ZM45.0994 45H54.8794V43H45.0994V45ZM55.8601 44.1952L58.2001 32.4352L56.2386 32.0448L53.8986 43.8048L55.8601 44.1952ZM57.2194 33.24H65.4994V31.24H57.2194V33.24ZM64.6273 32.7294L71.2273 44.4894L72.9714 43.5106L66.3714 31.7506L64.6273 32.7294ZM72.0994 45H82.3594V43H72.0994V45ZM83.2301 43.5082L75.9101 30.5482L74.1687 31.5318L81.4887 44.4918L83.2301 43.5082ZM75.3372 31.9946C83.2323 29.5313 88.0394 23.4007 88.0394 15.02H86.0394C86.0394 22.4793 81.8464 27.8687 74.7415 30.0854L75.3372 31.9946ZM66.9994 23.5H58.7194V25.5H66.9994V23.5ZM59.6996 24.6977L62.6396 10.1177L60.6791 9.72233L57.7391 24.3023L59.6996 24.6977ZM61.6594 10.92H69.3394V8.92H61.6594V10.92ZM69.3394 10.92C71.7271 10.92 73.4448 11.3847 74.5434 12.1948C75.5892 12.9661 76.1994 14.1429 76.1994 15.92H78.1994C78.1994 13.6171 77.3695 11.7939 75.7304 10.5852C74.144 9.4153 71.9317 8.92 69.3394 8.92V10.92ZM76.1994 15.92C76.1994 18.4677 75.3475 20.3077 73.869 21.5324C72.3616 22.781 70.0699 23.5 66.9994 23.5V25.5C70.3489 25.5 73.1572 24.719 75.1448 23.0726C77.1612 21.4023 78.1994 18.9523 78.1994 15.92H76.1994ZM111 45.72C127.022 45.72 137.98 34.4232 137.98 19.52H135.98C135.98 33.2968 125.939 43.72 111 43.72V45.72ZM137.98 19.52C137.98 13.8721 135.965 9.03206 132.217 5.61134C128.477 2.19802 123.102 0.279999 116.52 0.279999V2.28C122.719 2.28 127.574 4.08198 130.869 7.08866C134.155 10.0879 135.98 14.3679 135.98 19.52H137.98ZM116.52 0.279999C100.499 0.279999 89.5405 11.5768 89.5405 26.48H91.5405C91.5405 12.7032 101.582 2.28 116.52 2.28V0.279999ZM89.5405 26.48C89.5405 32.1279 91.5555 36.9679 95.3039 40.3887C99.0442 43.802 104.419 45.72 111 45.72V43.72C104.802 43.72 99.9467 41.918 96.6521 38.9113C93.3655 35.9121 91.5405 31.6321 91.5405 26.48H89.5405ZM111.84 35.44C108.341 35.44 105.746 34.4329 104.032 32.8049C102.322 31.1812 101.38 28.8369 101.38 25.94H99.3805C99.3805 29.2831 100.479 32.1888 102.654 34.2551C104.825 36.3171 107.96 37.44 111.84 37.44V35.44ZM101.38 25.94C101.38 17.4933 106.865 10.56 115.68 10.56V8.56C105.536 8.56 99.3805 16.6267 99.3805 25.94H101.38ZM115.68 10.56C119.18 10.56 121.775 11.5671 123.489 13.1951C125.199 14.8188 126.14 17.1631 126.14 20.06H128.14C128.14 16.7169 127.042 13.8112 124.867 11.7449C122.696 9.68294 119.561 8.56 115.68 8.56V10.56ZM126.14 20.06C126.14 28.5067 120.656 35.44 111.84 35.44V37.44C121.985 37.44 128.14 29.3733 128.14 20.06H126.14ZM164.707 29.72L163.726 29.5227L163.725 29.528L164.707 29.72ZM170.287 2L171.267 2.19734L171.508 0.999997H170.287V2ZM145.927 2V0.999997H145.107L144.946 1.80388L145.927 2ZM144.367 9.8L143.386 9.60388L143.147 10.8H144.367V9.8ZM159.067 9.8L160.048 9.99334L160.283 8.8H159.067V9.8ZM155.047 30.2L156.027 30.3961L156.028 30.3933L155.047 30.2ZM140.707 32.3L141.558 31.7749L140.91 30.7248L140.017 31.5762L140.707 32.3ZM134.287 38.42L133.597 37.6962L133.003 38.2617L133.441 38.9545L134.287 38.42ZM147.967 45.72C152.665 45.72 156.577 44.6992 159.596 42.1204C162.607 39.5487 164.584 35.5526 165.688 29.912L163.725 29.528C162.669 34.9274 160.836 38.4313 158.297 40.5996C155.767 42.7608 152.388 43.72 147.967 43.72V45.72ZM165.687 29.9173L171.267 2.19734L169.306 1.80266L163.726 29.5227L165.687 29.9173ZM170.287 0.999997H145.927V3H170.287V0.999997ZM144.946 1.80388L143.386 9.60388L145.347 9.99611L146.907 2.19611L144.946 1.80388ZM144.367 10.8H159.067V8.8H144.367V10.8ZM158.085 9.60666L154.065 30.0067L156.028 30.3933L160.048 9.99334L158.085 9.60666ZM154.066 30.0039C153.641 32.1298 152.901 33.5415 151.946 34.4225C151.008 35.288 149.755 35.74 148.087 35.74V37.74C150.138 37.74 151.915 37.172 153.302 35.8925C154.672 34.6285 155.552 32.7702 156.027 30.3961L154.066 30.0039ZM148.087 35.74C145.317 35.74 143.151 34.3578 141.558 31.7749L139.856 32.8251C141.742 35.8822 144.497 37.74 148.087 37.74V35.74ZM140.017 31.5762L133.597 37.6962L134.977 39.1438L141.397 33.0238L140.017 31.5762ZM133.441 38.9545C136.257 43.4074 141.315 45.72 147.967 45.72V43.72C141.778 43.72 137.476 41.5926 135.132 37.8855L133.441 38.9545ZM209.948 9.8V10.8H210.761L210.927 10.0033L209.948 9.8ZM211.568 2L212.547 2.20335L212.797 0.999997H211.568V2ZM179.828 2V0.999997H179.008L178.847 1.80388L179.828 2ZM171.428 44L170.447 43.8039L170.208 45H171.428V44ZM203.948 44V45H204.761L204.927 44.2034L203.948 44ZM205.568 36.2L206.547 36.4034L206.797 35.2H205.568V36.2ZM182.648 36.2L181.666 36.0062L181.431 37.2H182.648V36.2ZM184.568 26.48V25.48H183.746L183.586 26.2862L184.568 26.48ZM204.128 26.48V27.48H204.949L205.108 26.6746L204.128 26.48ZM205.628 18.92L206.608 19.1146L206.845 17.92H205.628V18.92ZM186.128 18.92L185.146 18.7264L184.911 19.92H186.128V18.92ZM187.928 9.8V8.8H187.106L186.946 9.60636L187.928 9.8ZM210.927 10.0033L212.547 2.20335L210.588 1.79664L208.968 9.59664L210.927 10.0033ZM211.568 0.999997H179.828V3H211.568V0.999997ZM178.847 1.80388L170.447 43.8039L172.408 44.1961L180.808 2.19611L178.847 1.80388ZM171.428 45H203.948V43H171.428V45ZM204.927 44.2034L206.547 36.4034L204.588 35.9966L202.968 43.7966L204.927 44.2034ZM205.568 35.2H182.648V37.2H205.568V35.2ZM183.629 36.3938L185.549 26.6738L183.586 26.2862L181.666 36.0062L183.629 36.3938ZM184.568 27.48H204.128V25.48H184.568V27.48ZM205.108 26.6746L206.608 19.1146L204.647 18.7254L203.147 26.2854L205.108 26.6746ZM205.628 17.92H186.128V19.92H205.628V17.92ZM187.109 19.1136L188.909 9.99363L186.946 9.60636L185.146 18.7264L187.109 19.1136ZM187.928 10.8H209.948V8.8H187.928V10.8ZM251.404 37.46L252.162 38.1122L252.761 37.4162L252.119 36.7602L251.404 37.46ZM245.644 31.58L246.359 30.8802L245.625 30.1312L244.911 30.8995L245.644 31.58ZM248.464 14.48L247.637 15.0419L248.252 15.9475L249.099 15.2531L248.464 14.48ZM255.484 8.72L256.119 9.49307L256.798 8.93546L256.332 8.19L255.484 8.72ZM233.644 45.72C241.047 45.72 247.481 43.552 252.162 38.1122L250.646 36.8078C246.447 41.688 240.641 43.72 233.644 43.72V45.72ZM252.119 36.7602L246.359 30.8802L244.93 32.2798L250.69 38.1598L252.119 36.7602ZM244.911 30.8995C241.989 34.0466 238.479 35.44 234.484 35.44V37.44C239.009 37.44 243.059 35.8334 246.377 32.2604L244.911 30.8995ZM234.484 35.44C230.885 35.44 228.212 34.4422 226.448 32.8108C224.693 31.1874 223.724 28.8326 223.724 25.88H221.724C221.724 29.2874 222.856 32.2126 225.09 34.2792C227.316 36.3378 230.524 37.44 234.484 37.44V35.44ZM223.724 25.88C223.724 17.2933 229.472 10.56 238.324 10.56V8.56C228.216 8.56 221.724 16.3467 221.724 25.88H223.724ZM238.324 10.56C242.658 10.56 245.687 12.1709 247.637 15.0419L249.291 13.9181C246.922 10.4291 243.231 8.56 238.324 8.56V10.56ZM249.099 15.2531L256.119 9.49307L254.85 7.94693L247.83 13.7069L249.099 15.2531ZM256.332 8.19C253.086 2.99531 246.628 0.279999 238.984 0.279999V2.28C246.22 2.28 251.883 4.84469 254.636 9.25L256.332 8.19ZM238.984 0.279999C222.846 0.279999 211.884 11.5738 211.884 26.48H213.884C213.884 12.7062 223.922 2.28 238.984 2.28V0.279999ZM211.884 26.48C211.884 32.1377 213.966 36.9782 217.782 40.395C221.588 43.8031 227.034 45.72 233.644 45.72V43.72C227.414 43.72 222.48 41.9169 219.116 38.905C215.762 35.9018 213.884 31.6223 213.884 26.48H211.884ZM263.858 44L262.877 43.8049L262.639 45H263.858V44ZM273.578 44V45H274.397L274.558 44.1968L273.578 44ZM280.418 9.92V8.92H279.599L279.438 9.72322L280.418 9.92ZM293.798 9.92V10.92H294.614L294.778 10.1204L293.798 9.92ZM295.418 2L296.398 2.20039L296.643 0.999997H295.418V2ZM258.818 2V0.999997H258.002L257.838 1.7996L258.818 2ZM257.198 9.92L256.218 9.7196L255.973 10.92H257.198V9.92ZM270.638 9.92L271.619 10.1151L271.857 8.92H270.638V9.92ZM263.858 45H273.578V43H263.858V45ZM274.558 44.1968L281.398 10.1168L279.438 9.72322L272.598 43.8032L274.558 44.1968ZM280.418 10.92H293.798V8.92H280.418V10.92ZM294.778 10.1204L296.398 2.20039L294.438 1.7996L292.818 9.7196L294.778 10.1204ZM295.418 0.999997H258.818V3H295.418V0.999997ZM257.838 1.7996L256.218 9.7196L258.178 10.1204L259.798 2.20039L257.838 1.7996ZM257.198 10.92H270.638V8.92H257.198V10.92ZM269.657 9.72488L262.877 43.8049L264.839 44.1951L271.619 10.1151L269.657 9.72488ZM305.155 14.24L306.155 14.2487V14.24H305.155ZM325.495 12.32L324.933 13.1472L325.884 13.7935L326.392 12.7614L325.495 12.32ZM329.155 4.88L330.052 5.32141L330.447 4.51911L329.694 4.03748L329.155 4.88ZM293.695 32.54L294.287 31.734L293.352 31.0476L292.811 32.0731L293.695 32.54ZM289.735 40.04L288.851 39.5731L288.451 40.33L289.137 40.8416L289.735 40.04ZM306.595 45.72C312.591 45.72 317.663 44.2918 321.264 41.6487C324.893 38.9851 326.975 35.1206 326.975 30.44H324.975C324.975 34.4594 323.217 37.7349 320.081 40.0363C316.917 42.3582 312.299 43.72 306.595 43.72V45.72ZM326.975 30.44C326.975 26.8903 325.515 24.419 323.343 22.6597C321.224 20.9442 318.453 19.9248 315.832 19.1327C313.122 18.314 310.659 17.7547 308.776 16.9488C306.885 16.139 306.146 15.3139 306.155 14.2487L304.155 14.2313C304.134 16.6161 305.983 17.9285 307.989 18.7874C310.005 19.6503 312.75 20.291 315.253 21.0473C317.844 21.8302 320.289 22.7608 322.084 24.214C323.825 25.6235 324.975 27.5397 324.975 30.44H326.975ZM306.155 14.24C306.155 13.1664 306.725 12.1696 308.023 11.3932C309.347 10.6015 311.385 10.08 314.095 10.08V8.08C311.165 8.08 308.733 8.63845 306.997 9.67676C305.235 10.7304 304.155 12.3136 304.155 14.24H306.155ZM314.095 10.08C318.073 10.08 321.948 11.1195 324.933 13.1472L326.057 11.4928C322.682 9.20055 318.397 8.08 314.095 8.08V10.08ZM326.392 12.7614L330.052 5.32141L328.258 4.43858L324.598 11.8786L326.392 12.7614ZM329.694 4.03748C325.826 1.56483 320.402 0.279999 314.635 0.279999V2.28C320.148 2.28 325.164 3.51517 328.616 5.72252L329.694 4.03748ZM314.635 0.279999C308.668 0.279999 303.639 1.70877 300.075 4.34612C296.483 7.00377 294.435 10.8531 294.435 15.5H296.435C296.435 11.5069 298.166 8.24623 301.265 5.95388C304.39 3.64123 308.962 2.28 314.635 2.28V0.279999ZM294.435 15.5C294.435 19.1538 295.877 21.7121 298.043 23.5417C300.157 25.3283 302.925 26.3899 305.549 27.2027C308.266 28.0446 310.718 28.5971 312.616 29.391C314.527 30.1907 315.255 30.9899 315.255 32H317.255C317.255 29.6501 315.38 28.3793 313.388 27.5459C311.382 26.7067 308.628 26.0629 306.141 25.2923C303.559 24.4926 301.122 23.5254 299.333 22.0139C297.595 20.5454 296.435 18.5362 296.435 15.5H294.435ZM315.255 32C315.255 33.0901 314.685 34.0232 313.417 34.7358C312.114 35.4683 310.13 35.92 307.555 35.92V37.92C310.32 37.92 312.685 37.4417 314.397 36.4792C316.145 35.4968 317.255 33.9699 317.255 32H315.255ZM307.555 35.92C302.77 35.92 297.942 34.418 294.287 31.734L293.103 33.346C297.128 36.302 302.379 37.92 307.555 37.92V35.92ZM292.811 32.0731L288.851 39.5731L290.619 40.5069L294.579 33.0069L292.811 32.0731ZM289.137 40.8416C292.892 43.642 299.599 45.72 306.595 45.72V43.72C299.911 43.72 293.658 41.718 290.333 39.2384L289.137 40.8416Z" fill="#424242"/>
</svg>
