<svg width="1164" height="203" viewBox="0 0 1164 203" fill="none" xmlns="http://www.w3.org/2000/svg">
<path d="M47.9958 10.5V0.499988H39.7978L38.19 8.53883L47.9958 10.5ZM12.2958 189L2.49001 187.039L0.0977821 199H12.2958V189ZM62.7858 189V199H70.9925L72.5937 190.951L62.7858 189ZM72.2208 141.57V131.57H64.0141L62.413 139.619L72.2208 141.57ZM97.7208 141.57L106.449 136.69L103.586 131.57H97.7208V141.57ZM124.241 189L115.513 193.88L118.375 199H124.241V189ZM177.026 189V199H194.186L185.726 184.07L177.026 189ZM146.681 135.45L143.426 125.995L132.048 129.911L137.981 140.38L146.681 135.45ZM79.8708 102.555L70.0743 100.548L67.6143 112.555H79.8708V102.555ZM90.5808 50.28V40.28H82.4219L80.7843 48.2729L90.5808 50.28ZM206.151 67.365C206.151 46.8297 198.465 29.5827 183.535 17.7165C168.915 6.0969 148.453 0.499988 124.241 0.499988V20.5C145.674 20.5 161.166 25.4856 171.091 33.3735C180.705 41.0148 186.151 52.2003 186.151 67.365H206.151ZM124.241 0.499988H47.9958V20.5H124.241V0.499988ZM38.19 8.53883L2.49001 187.039L22.1016 190.961L57.8016 12.4611L38.19 8.53883ZM12.2958 199H62.7858V179H12.2958V199ZM72.5937 190.951L82.0287 143.521L62.413 139.619L52.978 187.049L72.5937 190.951ZM72.2208 151.57H97.7208V131.57H72.2208V151.57ZM88.9926 146.45L115.513 193.88L132.969 184.12L106.449 136.69L88.9926 146.45ZM124.241 199H177.026V179H124.241V199ZM185.726 184.07L155.381 130.52L137.981 140.38L168.326 193.93L185.726 184.07ZM149.936 144.905C184.882 132.875 206.151 104.736 206.151 67.365H186.151C186.151 95.7845 170.699 116.605 143.426 125.995L149.936 144.905ZM135.151 72.21C135.151 79.6864 132.772 84.2526 129.391 87.1332C125.766 90.2212 119.588 92.555 109.961 92.555V112.555C122.519 112.555 133.936 109.534 142.36 102.358C151.027 94.9749 155.151 84.3686 155.151 72.21H135.151ZM109.961 92.555H79.8708V112.555H109.961V92.555ZM89.6673 104.562L100.377 52.2871L80.7843 48.2729L70.0743 100.548L89.6673 104.562ZM90.5808 60.28H117.101V40.28H90.5808V60.28ZM117.101 60.28C124.695 60.28 129.24 61.8277 131.662 63.6284C133.585 65.058 135.151 67.3387 135.151 72.21H155.151C155.151 62.0363 151.361 53.352 143.594 47.5778C136.327 42.1748 126.847 40.28 117.101 40.28V60.28ZM336.716 189L326.921 191.017L328.565 199H336.716V189ZM386.951 189V199H399.652L396.671 186.653L386.951 189ZM343.856 10.5L353.576 8.15313L351.729 0.499988H343.856V10.5ZM294.131 10.5V0.499988H288.665L285.713 5.10092L294.131 10.5ZM179.636 189L171.218 183.601L161.341 199H179.636V189ZM232.931 189V199H238.614L241.522 194.117L232.931 189ZM253.586 154.32V144.32H247.902L244.994 149.203L253.586 154.32ZM329.576 154.32L339.37 152.303L337.727 144.32H329.576V154.32ZM275.771 117.09L267.159 112.007L258.255 127.09H275.771V117.09ZM309.941 59.205L319.733 57.1775L314.486 31.834L301.329 54.1215L309.941 59.205ZM321.926 117.09V127.09H334.208L331.718 115.063L321.926 117.09ZM336.716 199H386.951V179H336.716V199ZM396.671 186.653L353.576 8.15313L334.135 12.8468L377.23 191.347L396.671 186.653ZM343.856 0.499988H294.131V20.5H343.856V0.499988ZM285.713 5.10092L171.218 183.601L188.053 194.399L302.548 15.8991L285.713 5.10092ZM179.636 199H232.931V179H179.636V199ZM241.522 194.117L262.177 159.437L244.994 149.203L224.339 183.883L241.522 194.117ZM253.586 164.32H329.576V144.32H253.586V164.32ZM319.781 156.337L326.921 191.017L346.51 186.983L339.37 152.303L319.781 156.337ZM284.382 122.173L318.552 64.2885L301.329 54.1215L267.159 112.007L284.382 122.173ZM300.148 61.2325L312.133 119.117L331.718 115.063L319.733 57.1775L300.148 61.2325ZM321.926 107.09H275.771V127.09H321.926V107.09ZM557.324 10.5V0.499988H549.114L547.516 8.5536L557.324 10.5ZM537.944 108.165L529.391 113.346L542.739 135.381L547.753 110.111L537.944 108.165ZM478.784 10.5L487.338 5.31895L484.419 0.499988H478.784V10.5ZM437.219 10.5V0.499988H429.021L427.414 8.53883L437.219 10.5ZM401.519 189L391.714 187.039L389.321 199H401.519V189ZM450.989 189V199H459.183L460.794 190.966L450.989 189ZM470.624 91.08L479.193 85.9252L465.893 63.8147L460.82 89.1139L470.624 91.08ZM529.529 189L520.96 194.155L523.875 199H529.529V189ZM571.094 189V199H579.292L580.9 190.961L571.094 189ZM606.794 10.5L616.6 12.4611L618.992 0.499988H606.794V10.5ZM547.516 8.5536L528.136 106.219L547.753 110.111L567.133 12.4464L547.516 8.5536ZM546.498 102.984L487.338 5.31895L470.231 15.681L529.391 113.346L546.498 102.984ZM478.784 0.499988H437.219V20.5H478.784V0.499988ZM427.414 8.53883L391.714 187.039L411.325 190.961L447.025 12.4611L427.414 8.53883ZM401.519 199H450.989V179H401.519V199ZM460.794 190.966L480.429 93.0461L460.82 89.1139L441.185 187.034L460.794 190.966ZM462.055 96.2348L520.96 194.155L538.098 183.845L479.193 85.9252L462.055 96.2348ZM529.529 199H571.094V179H529.529V199ZM580.9 190.961L616.6 12.4611L596.989 8.53883L561.289 187.039L580.9 190.961ZM606.794 0.499988H557.324V20.5H606.794V0.499988ZM727.324 125.505L717.521 123.527L717.517 123.55L717.512 123.573L727.324 125.505ZM750.529 10.5L760.331 12.4779L762.748 0.499988H750.529V10.5ZM638.839 10.5V0.499988H630.662L629.038 8.5142L638.839 10.5ZM630.934 49.515L621.133 47.5292L618.704 59.515H630.934V49.515ZM692.644 49.515L702.454 51.4517L704.811 39.515H692.644V49.515ZM677.089 128.31L686.882 130.331L686.891 130.289L686.899 130.247L677.089 128.31ZM622.009 134.175L630.385 128.712L623.815 118.639L615.109 126.936L622.009 134.175ZM589.369 165.285L582.469 158.046L576.368 163.862L581.067 170.859L589.369 165.285ZM650.569 202.57C672.942 202.57 692.337 197.824 707.498 185.171C722.618 172.552 732.042 153.307 737.135 127.437L717.512 123.573C712.916 146.918 705 161.205 694.683 169.816C684.408 178.391 670.27 182.57 650.569 182.57V202.57ZM737.126 127.483L760.331 12.4779L740.726 8.52211L717.521 123.527L737.126 127.483ZM750.529 0.499988H638.839V20.5H750.529V0.499988ZM629.038 8.5142L621.133 47.5292L640.735 51.5008L648.64 12.4858L629.038 8.5142ZM630.934 59.515H692.644V39.515H630.934V59.515ZM682.833 47.5783L667.278 126.373L686.899 130.247L702.454 51.4517L682.833 47.5783ZM667.295 126.289C665.901 133.044 663.624 136.865 661.338 138.982C659.216 140.946 656.193 142.28 651.334 142.28V162.28C660.245 162.28 668.442 159.661 674.926 153.657C681.246 147.805 684.961 139.641 686.882 130.331L667.295 126.289ZM651.334 142.28C643.424 142.28 636.777 138.513 630.385 128.712L613.633 139.638C622.541 153.297 634.764 162.28 651.334 162.28V142.28ZM615.109 126.936L582.469 158.046L596.268 172.524L628.908 141.414L615.109 126.936ZM581.067 170.859C595.445 192.274 619.77 202.57 650.569 202.57V182.57C624.247 182.57 607.262 173.996 597.671 159.711L581.067 170.859ZM880.832 189L871.037 191.017L872.681 199H880.832V189ZM931.067 189V199H943.768L940.788 186.653L931.067 189ZM887.972 10.5L897.693 8.15313L895.845 0.499988H887.972V10.5ZM838.247 10.5V0.499988H832.781L829.83 5.10092L838.247 10.5ZM723.752 189L715.335 183.601L705.457 199H723.752V189ZM777.047 189V199H782.73L785.638 194.117L777.047 189ZM797.702 154.32V144.32H792.018L789.11 149.203L797.702 154.32ZM873.692 154.32L883.486 152.303L881.843 144.32H873.692V154.32ZM819.887 117.09L811.275 112.007L802.371 127.09H819.887V117.09ZM854.057 59.205L863.849 57.1775L858.602 31.834L845.445 54.1215L854.057 59.205ZM866.042 117.09V127.09H878.324L875.834 115.063L866.042 117.09ZM880.832 199H931.067V179H880.832V199ZM940.788 186.653L897.693 8.15313L878.251 12.8468L921.346 191.347L940.788 186.653ZM887.972 0.499988H838.247V20.5H887.972V0.499988ZM829.83 5.10092L715.335 183.601L732.169 194.399L846.664 15.8991L829.83 5.10092ZM723.752 199H777.047V179H723.752V199ZM785.638 194.117L806.293 159.437L789.11 149.203L768.455 183.883L785.638 194.117ZM797.702 164.32H873.692V144.32H797.702V164.32ZM863.897 156.337L871.037 191.017L890.626 186.983L883.486 152.303L863.897 156.337ZM828.498 122.173L862.668 64.2885L845.445 54.1215L811.275 112.007L828.498 122.173ZM844.264 61.2325L856.25 119.117L875.834 115.063L863.849 57.1775L844.264 61.2325ZM866.042 107.09H819.887V127.09H866.042V107.09ZM1101.44 10.5V0.499988H1093.23L1091.63 8.5536L1101.44 10.5ZM1082.06 108.165L1073.51 113.346L1086.86 135.381L1091.87 110.111L1082.06 108.165ZM1022.9 10.5L1031.45 5.31895L1028.53 0.499988H1022.9V10.5ZM981.336 10.5V0.499988H973.138L971.53 8.53883L981.336 10.5ZM945.636 189L935.83 187.039L933.438 199H945.636V189ZM995.106 189V199H1003.3L1004.91 190.966L995.106 189ZM1014.74 91.08L1023.31 85.9252L1010.01 63.8147L1004.94 89.1139L1014.74 91.08ZM1073.65 189L1065.08 194.155L1067.99 199H1073.65V189ZM1115.21 189V199H1123.41L1125.02 190.961L1115.21 189ZM1150.91 10.5L1160.72 12.4611L1163.11 0.499988H1150.91V10.5ZM1091.63 8.5536L1072.25 106.219L1091.87 110.111L1111.25 12.4464L1091.63 8.5536ZM1090.61 102.984L1031.45 5.31895L1014.35 15.681L1073.51 113.346L1090.61 102.984ZM1022.9 0.499988H981.336V20.5H1022.9V0.499988ZM971.53 8.53883L935.83 187.039L955.441 190.961L991.141 12.4611L971.53 8.53883ZM945.636 199H995.106V179H945.636V199ZM1004.91 190.966L1024.55 93.0461L1004.94 89.1139L985.301 187.034L1004.91 190.966ZM1006.17 96.2348L1065.08 194.155L1082.21 183.845L1023.31 85.9252L1006.17 96.2348ZM1073.65 199H1115.21V179H1073.65V199ZM1125.02 190.961L1160.72 12.4611L1141.1 8.53883L1105.4 187.039L1125.02 190.961ZM1150.91 0.499988H1101.44V20.5H1150.91V0.499988Z" fill="#7B0100" fill-opacity="0.6"/>
</svg>
