<svg width="1212" height="467" viewBox="0 0 1212 467" fill="none" xmlns="http://www.w3.org/2000/svg">
<path opacity="0.5" d="M114.2 78.4L125.199 78.5146L125.2 78.4573V78.4H114.2ZM209.6 73.9L203.694 83.1803L214.069 89.7825L219.479 78.7385L209.6 73.9ZM231.2 29.8L241.079 34.6385L245.461 25.6911L236.99 20.4471L231.2 29.8ZM50.9 163.3L56.7887 154.009L46.7243 147.63L41.1688 158.171L50.9 163.3ZM27.5 207.7L17.7688 202.571L13.1933 211.253L21.2988 216.785L27.5 207.7ZM115.1 241.2C147.483 241.2 175.273 233.395 195.267 218.559C215.549 203.509 227.2 181.607 227.2 155.5H205.2C205.2 174.393 197.051 189.841 182.158 200.891C166.978 212.155 144.217 219.2 115.1 219.2V241.2ZM227.2 155.5C227.2 135.855 219.215 121.71 207.277 111.727C195.884 102.201 181.281 96.7797 168.216 92.9042C161.621 90.9481 154.979 89.2685 149.149 87.7296C143.159 86.1481 138.041 84.7192 133.812 83.1618C129.456 81.5581 126.997 80.1492 125.756 79.059C125.219 78.5873 125.123 78.3569 125.15 78.4112C125.203 78.5184 125.198 78.6136 125.199 78.5146L103.201 78.2854C103.123 85.7176 106.577 91.4947 111.238 95.5886C115.534 99.3617 121.018 101.895 126.21 103.807C131.529 105.765 137.566 107.425 143.534 109.001C149.663 110.619 155.785 112.164 161.959 113.996C174.431 117.695 185.385 122.099 193.164 128.604C200.397 134.652 205.2 142.745 205.2 155.5H227.2ZM125.2 78.4C125.2 77.6169 125.452 75.7127 129.369 73.4549C133.507 71.0695 140.848 69 152 69V47C138.552 47 126.993 49.4305 118.381 54.3951C109.548 59.4872 103.2 67.7831 103.2 78.4H125.2ZM152 69C170.872 69 189.169 73.9371 203.694 83.1803L215.506 64.6197C197.031 52.8628 174.528 47 152 47V69ZM219.479 78.7385L241.079 34.6385L221.321 24.9614L199.721 69.0614L219.479 78.7385ZM236.99 20.4471C215.818 7.34061 186.612 0.799986 155.6 0.799986V22.8C183.988 22.8 208.782 28.8594 225.41 39.1529L236.99 20.4471ZM155.6 0.799986C122.939 0.799986 95.1871 8.59582 75.3095 23.5148C55.1304 38.66 43.8 60.656 43.8 86.8H65.8C65.8 67.6439 73.8197 52.14 88.5155 41.1102C103.513 29.8542 126.161 22.8 155.6 22.8V0.799986ZM43.8 86.8C43.8 106.648 51.6824 121.036 63.5473 131.284C74.8992 141.089 89.4693 146.744 102.554 150.785C109.162 152.826 115.791 154.566 121.644 156.156C127.648 157.786 132.785 159.245 137.049 160.821C141.437 162.443 143.95 163.859 145.24 164.969C145.803 165.454 145.906 165.691 145.875 165.631C145.814 165.512 145.8 165.376 145.8 165.4H167.8C167.8 157.975 164.227 152.285 159.594 148.297C155.306 144.605 149.85 142.098 144.676 140.185C139.377 138.227 133.358 136.54 127.409 134.925C121.309 133.268 115.188 131.662 109.046 129.765C96.6307 125.931 85.7008 121.348 77.9277 114.635C70.6676 108.364 65.8 99.9522 65.8 86.8H43.8ZM145.8 165.4C145.8 165.933 145.834 167.349 142.241 169.233C138.287 171.307 131.285 173 120.8 173V195C133.115 195 144.113 193.093 152.459 188.717C161.166 184.151 167.8 176.267 167.8 165.4H145.8ZM120.8 173C98.9553 173 76.3876 166.431 56.7887 154.009L45.0113 172.591C68.0124 187.169 94.6447 195 120.8 195V173ZM41.1688 158.171L17.7688 202.571L37.2312 212.829L60.6312 168.429L41.1688 158.171ZM21.2988 216.785C42.486 231.247 77.5185 241.2 115.1 241.2V219.2C80.6815 219.2 50.314 209.953 33.7012 198.615L21.2988 216.785ZM413.138 16V4.99999H404.107L402.349 13.8586L413.138 16ZM397.538 94.6V105.6H406.57L408.328 96.7414L397.538 94.6ZM316.838 94.6L306.049 92.4586L303.441 105.6H316.838V94.6ZM332.438 16L343.228 18.1414L345.836 4.99999H332.438V16ZM273.038 16V4.99999H264.02L262.252 13.8427L273.038 16ZM231.038 226L220.252 223.843L217.62 237H231.038V226ZM290.438 226V237H299.469L301.228 228.142L290.438 226ZM306.638 144.4V133.4H297.607L295.849 142.258L306.638 144.4ZM387.338 144.4L398.128 146.542L400.737 133.4H387.338V144.4ZM371.138 226L360.349 223.858L357.74 237H371.138V226ZM430.538 226V237H439.556L441.325 228.157L430.538 226ZM472.538 16L483.325 18.1573L485.956 4.99999H472.538V16ZM402.349 13.8586L386.749 92.4586L408.328 96.7414L423.928 18.1414L402.349 13.8586ZM397.538 83.6H316.838V105.6H397.538V83.6ZM327.628 96.7414L343.228 18.1414L321.649 13.8586L306.049 92.4586L327.628 96.7414ZM332.438 4.99999H273.038V27H332.438V4.99999ZM262.252 13.8427L220.252 223.843L241.825 228.157L283.825 18.1573L262.252 13.8427ZM231.038 237H290.438V215H231.038V237ZM301.228 228.142L317.428 146.542L295.849 142.258L279.649 223.858L301.228 228.142ZM306.638 155.4H387.338V133.4H306.638V155.4ZM376.549 142.258L360.349 223.858L381.928 228.142L398.128 146.542L376.549 142.258ZM371.138 237H430.538V215H371.138V237ZM441.325 228.157L483.325 18.1573L461.752 13.8427L419.752 223.843L441.325 228.157ZM472.538 4.99999H413.138V27H472.538V4.99999ZM686.338 135.1L697.122 137.267L697.124 137.257L697.126 137.247L686.338 135.1ZM710.038 16L720.826 18.1468L723.442 4.99999H710.038V16ZM651.538 16V4.99999H642.52L640.751 13.8427L651.538 16ZM628.438 131.5L639.217 133.692L639.22 133.675L639.224 133.657L628.438 131.5ZM549.237 131.5L560.024 133.657H560.024L549.237 131.5ZM572.338 16L583.124 18.1573L585.755 4.99999H572.338V16ZM512.938 16V4.99999H503.929L502.153 13.832L512.938 16ZM489.538 132.4L478.753 130.232L478.744 130.277L478.735 130.323L489.538 132.4ZM575.038 241.2C607.899 241.2 635.335 232.548 656.312 214.501C677.215 196.518 690.495 170.244 697.122 137.267L675.553 132.933C669.58 162.656 658.11 183.932 641.964 197.824C625.89 211.652 603.976 219.2 575.038 219.2V241.2ZM697.126 137.247L720.826 18.1468L699.249 13.8532L675.549 132.953L697.126 137.247ZM710.038 4.99999H651.538V27H710.038V4.99999ZM640.751 13.8427L617.651 129.343L639.224 133.657L662.324 18.1573L640.751 13.8427ZM617.658 129.308C614.224 146.194 609.455 156.195 603.992 161.957C598.981 167.243 592.389 170 582.237 170V192C596.986 192 609.894 187.707 619.958 177.093C629.57 166.955 635.451 152.206 639.217 133.692L617.658 129.308ZM582.237 170C572.503 170 566.956 167.713 563.863 164.857C560.934 162.151 558.438 157.291 558.438 148H536.438C536.438 161.209 540.091 172.849 548.937 181.018C557.619 189.037 569.472 192 582.237 192V170ZM558.438 148C558.438 143.77 558.934 139.106 560.024 133.657L538.451 129.343C537.141 135.894 536.438 142.03 536.438 148H558.438ZM560.024 133.657L583.124 18.1573L561.551 13.8427L538.451 129.343L560.024 133.657ZM572.338 4.99999H512.938V27H572.338V4.99999ZM502.153 13.832L478.753 130.232L500.322 134.568L523.722 18.168L502.153 13.832ZM478.735 130.323C477.151 138.562 476.138 146.791 476.138 154.6H498.138C498.138 148.609 498.924 141.838 500.34 134.477L478.735 130.323ZM476.138 154.6C476.138 180.619 485.472 202.714 503.299 218.153C520.938 233.429 545.735 241.2 575.038 241.2V219.2C549.44 219.2 530.287 212.421 517.701 201.522C505.303 190.786 498.138 175.081 498.138 154.6H476.138ZM708.577 226L697.791 223.843L695.159 237H708.577V226ZM750.577 16V4.99999H741.56L739.791 13.8427L750.577 16ZM777.577 178.6L766.787 176.464L764.187 189.6H777.577V178.6ZM800.377 63.4V52.4H791.341L789.587 61.2643L800.377 63.4ZM708.577 237H815.977V215H708.577V237ZM815.977 237C856.76 237 892.347 224.442 917.862 201.119C943.477 177.704 958.077 144.209 958.077 104.2H936.077C936.077 138.591 923.677 165.996 903.018 184.881C882.258 203.858 852.294 215 815.977 215V237ZM958.077 104.2C958.077 74.1493 946.921 48.8844 926.032 31.3185C905.365 13.9398 876.271 4.99999 841.777 4.99999V27C872.683 27 896.239 35.0102 911.873 48.1565C927.284 61.1156 936.077 79.9507 936.077 104.2H958.077ZM841.777 4.99999H750.577V27H841.777V4.99999ZM739.791 13.8427L697.791 223.843L719.364 228.157L761.364 18.1573L739.791 13.8427ZM788.368 180.736L811.168 65.5356L789.587 61.2643L766.787 176.464L788.368 180.736ZM800.377 74.4H835.177V52.4H800.377V74.4ZM835.177 74.4C850.664 74.4 860.684 78.1443 866.709 83.4158C872.508 88.49 876.077 96.2688 876.077 107.8H898.077C898.077 91.4312 892.797 77.01 881.196 66.8591C869.821 56.9057 853.891 52.4 835.177 52.4V74.4ZM876.077 107.8C876.077 125.662 870.565 140.512 861.018 150.788C851.579 160.949 837.314 167.6 817.777 167.6V189.6C842.641 189.6 863.026 180.951 877.136 165.762C891.14 150.688 898.077 130.138 898.077 107.8H876.077ZM817.777 167.6H777.577V189.6H817.777V167.6ZM1138.53 16V4.99999H1129.5L1127.74 13.8586L1138.53 16ZM1122.93 94.6V105.6H1131.96L1133.72 96.7414L1122.93 94.6ZM1042.23 94.6L1031.44 92.4586L1028.83 105.6H1042.23V94.6ZM1057.83 16L1068.62 18.1414L1071.23 4.99999H1057.83V16ZM998.429 16V4.99999H989.411L987.643 13.8427L998.429 16ZM956.429 226L945.643 223.843L943.011 237H956.429V226ZM1015.83 226V237H1024.86L1026.62 228.142L1015.83 226ZM1032.03 144.4V133.4H1023L1021.24 142.258L1032.03 144.4ZM1112.73 144.4L1123.52 146.542L1126.13 133.4H1112.73V144.4ZM1096.53 226L1085.74 223.858L1083.13 237H1096.53V226ZM1155.93 226V237H1164.95L1166.72 228.157L1155.93 226ZM1197.93 16L1208.72 18.1573L1211.35 4.99999H1197.93V16ZM1127.74 13.8586L1112.14 92.4586L1133.72 96.7414L1149.32 18.1414L1127.74 13.8586ZM1122.93 83.6H1042.23V105.6H1122.93V83.6ZM1053.02 96.7414L1068.62 18.1414L1047.04 13.8586L1031.44 92.4586L1053.02 96.7414ZM1057.83 4.99999H998.429V27L1057.83 27V4.99999ZM987.643 13.8427L945.643 223.843L967.215 228.157L1009.22 18.1573L987.643 13.8427ZM956.429 237H1015.83V215H956.429V237ZM1026.62 228.142L1042.82 146.542L1021.24 142.258L1005.04 223.858L1026.62 228.142ZM1032.03 155.4H1112.73V133.4H1032.03V155.4ZM1101.94 142.258L1085.74 223.858L1107.32 228.142L1123.52 146.542L1101.94 142.258ZM1096.53 237H1155.93V215H1096.53V237ZM1166.72 228.157L1208.72 18.1573L1187.14 13.8427L1145.14 223.843L1166.72 228.157ZM1197.93 4.99999H1138.53V27H1197.93V4.99999ZM196.4 451L185.626 453.218L187.434 462H196.4V451ZM255.5 451V462H269.472L266.193 448.418L255.5 451ZM204.8 241L215.493 238.418L213.46 230H204.8V241ZM146.3 241V230H140.287L137.041 235.061L146.3 241ZM11.6 451L2.34102 445.061L-8.52412 462H11.6V451ZM74.3 451V462H80.5517L83.7508 456.629L74.3 451ZM98.6 410.2V399.2H92.3483L89.1492 404.571L98.6 410.2ZM188 410.2L198.774 407.982L196.966 399.2H188V410.2ZM124.7 366.4L115.227 360.808L105.433 377.4H124.7V366.4ZM164.9 298.3L175.672 296.07L169.899 268.192L155.427 292.708L164.9 298.3ZM179 366.4V377.4H192.511L189.772 364.17L179 366.4ZM196.4 462H255.5V440H196.4V462ZM266.193 448.418L215.493 238.418L194.107 243.582L244.807 453.582L266.193 448.418ZM204.8 230H146.3V252H204.8V230ZM137.041 235.061L2.34102 445.061L20.859 456.939L155.559 246.939L137.041 235.061ZM11.6 462H74.3V440H11.6V462ZM83.7508 456.629L108.051 415.829L89.1492 404.571L64.8492 445.371L83.7508 456.629ZM98.6 421.2H188V399.2H98.6V421.2ZM177.226 412.418L185.626 453.218L207.174 448.782L198.774 407.982L177.226 412.418ZM134.173 371.992L174.373 303.892L155.427 292.708L115.227 360.808L134.173 371.992ZM154.128 300.53L168.228 368.63L189.772 364.17L175.672 296.07L154.128 300.53ZM179 355.4H124.7V377.4H179V355.4ZM455.94 241V230H446.908L445.15 238.859L455.94 241ZM433.14 355.9L423.731 361.599L438.414 385.838L443.929 358.041L433.14 355.9ZM363.54 241L372.948 235.301L369.737 230H363.54V241ZM314.64 241V230H305.622L303.853 238.843L314.64 241ZM272.64 451L261.853 448.843L259.222 462H272.64V451ZM330.84 451V462H339.853L341.625 453.163L330.84 451ZM353.94 335.8L363.366 330.13L348.735 305.808L343.155 333.637L353.94 335.8ZM423.24 451L413.814 456.67L417.02 462H423.24V451ZM472.14 451V462H481.158L482.926 453.157L472.14 451ZM514.14 241L524.926 243.157L527.558 230H514.14V241ZM445.15 238.859L422.35 353.759L443.929 358.041L466.729 243.141L445.15 238.859ZM442.548 350.201L372.948 235.301L354.131 246.699L423.731 361.599L442.548 350.201ZM363.54 230H314.64V252H363.54V230ZM303.853 238.843L261.853 448.843L283.426 453.157L325.426 243.157L303.853 238.843ZM272.64 462H330.84V440H272.64V462ZM341.625 453.163L364.725 337.963L343.155 333.637L320.055 448.837L341.625 453.163ZM344.514 341.47L413.814 456.67L432.666 445.33L363.366 330.13L344.514 341.47ZM423.24 462H472.14V440H423.24V462ZM482.926 453.157L524.926 243.157L503.353 238.843L461.353 448.843L482.926 453.157ZM514.14 230H455.94V252H514.14V230ZM591.739 303.4L602.738 303.515L602.739 303.457V303.4H591.739ZM687.139 298.9L681.233 308.18L691.608 314.783L697.018 303.739L687.139 298.9ZM708.739 254.8L718.618 259.639L723 250.691L714.529 245.447L708.739 254.8ZM528.439 388.3L534.328 379.009L524.263 372.63L518.708 383.171L528.439 388.3ZM505.039 432.7L495.308 427.571L490.732 436.253L498.838 441.785L505.039 432.7ZM592.639 466.2C625.022 466.2 652.812 458.395 672.806 443.559C693.088 428.509 704.739 406.607 704.739 380.5H682.739C682.739 399.393 674.59 414.841 659.697 425.891C644.517 437.155 621.756 444.2 592.639 444.2V466.2ZM704.739 380.5C704.739 360.855 696.754 346.71 684.816 336.727C673.423 327.201 658.82 321.78 645.755 317.904C639.16 315.948 632.518 314.269 626.688 312.73C620.698 311.148 615.58 309.719 611.351 308.162C606.995 306.558 604.536 305.149 603.295 304.059C602.758 303.587 602.662 303.357 602.689 303.411C602.742 303.518 602.737 303.614 602.738 303.515L580.74 303.285C580.662 310.718 584.116 316.495 588.777 320.589C593.073 324.362 598.557 326.895 603.749 328.807C609.068 330.765 615.105 332.425 621.073 334.001C627.202 335.619 633.324 337.164 639.498 338.996C651.97 342.695 662.924 347.099 670.703 353.604C677.936 359.652 682.739 367.745 682.739 380.5H704.739ZM602.739 303.4C602.739 302.617 602.991 300.713 606.908 298.455C611.046 296.069 618.387 294 629.539 294V272C616.091 272 604.532 274.43 595.92 279.395C587.087 284.487 580.739 292.783 580.739 303.4H602.739ZM629.539 294C648.411 294 666.708 298.937 681.233 308.18L693.045 289.62C674.57 277.863 652.067 272 629.539 272V294ZM697.018 303.739L718.618 259.639L698.86 249.961L677.26 294.061L697.018 303.739ZM714.529 245.447C693.357 232.341 664.152 225.8 633.139 225.8V247.8C661.527 247.8 686.321 253.859 702.949 264.153L714.529 245.447ZM633.139 225.8C600.478 225.8 572.726 233.596 552.849 248.515C532.669 263.66 521.339 285.656 521.339 311.8H543.339C543.339 292.644 551.359 277.14 566.055 266.11C581.052 254.854 603.7 247.8 633.139 247.8V225.8ZM521.339 311.8C521.339 331.648 529.221 346.036 541.086 356.284C552.438 366.089 567.008 371.744 580.093 375.785C586.701 377.826 593.33 379.566 599.183 381.156C605.187 382.786 610.324 384.245 614.588 385.821C618.976 387.443 621.489 388.859 622.779 389.969C623.342 390.454 623.445 390.691 623.414 390.631C623.353 390.512 623.339 390.376 623.339 390.4H645.339C645.339 382.975 641.766 377.285 637.133 373.297C632.845 369.605 627.39 367.098 622.215 365.185C616.917 363.227 610.897 361.54 604.948 359.925C598.848 358.268 592.727 356.662 586.585 354.765C574.17 350.931 563.24 346.348 555.467 339.635C548.207 333.364 543.339 324.952 543.339 311.8H521.339ZM623.339 390.4C623.339 390.933 623.373 392.349 619.781 394.233C615.826 396.307 608.824 398 598.339 398V420C610.654 420 621.652 418.093 629.998 413.717C638.705 409.151 645.339 401.267 645.339 390.4H623.339ZM598.339 398C576.494 398 553.927 391.431 534.328 379.009L522.55 397.591C545.551 412.169 572.184 420 598.339 420V398ZM518.708 383.171L495.308 427.571L514.77 437.829L538.17 393.429L518.708 383.171ZM498.838 441.785C520.025 456.247 555.058 466.2 592.639 466.2V444.2C558.221 444.2 527.853 434.953 511.24 423.615L498.838 441.785ZM890.677 241V230H881.646L879.888 238.859L890.677 241ZM875.077 319.6V330.6H884.109L885.867 321.741L875.077 319.6ZM794.377 319.6L783.588 317.459L780.98 330.6H794.377V319.6ZM809.977 241L820.767 243.141L823.375 230H809.977V241ZM750.577 241V230H741.56L739.791 238.843L750.577 241ZM708.577 451L697.791 448.843L695.159 462H708.577V451ZM767.977 451V462H777.008L778.767 453.142L767.977 451ZM784.177 369.4V358.4H775.146L773.388 367.258L784.177 369.4ZM864.877 369.4L875.667 371.542L878.276 358.4H864.877V369.4ZM848.677 451L837.888 448.858L835.279 462H848.677V451ZM908.077 451V462H917.095L918.864 453.157L908.077 451ZM950.077 241L960.864 243.157L963.495 230H950.077V241ZM879.888 238.859L864.288 317.459L885.867 321.741L901.467 243.141L879.888 238.859ZM875.077 308.6H794.377V330.6H875.077V308.6ZM805.167 321.741L820.767 243.141L799.188 238.859L783.588 317.459L805.167 321.741ZM809.977 230H750.577V252H809.977V230ZM739.791 238.843L697.791 448.843L719.364 453.157L761.364 243.157L739.791 238.843ZM708.577 462H767.977V440H708.577V462ZM778.767 453.142L794.967 371.542L773.388 367.258L757.188 448.858L778.767 453.142ZM784.177 380.4H864.877V358.4H784.177V380.4ZM854.088 367.258L837.888 448.858L859.467 453.142L875.667 371.542L854.088 367.258ZM848.677 462H908.077V440H848.677V462ZM918.864 453.157L960.864 243.157L939.291 238.843L897.291 448.843L918.864 453.157ZM950.077 230H890.677V252H950.077V230ZM1163.88 360.1L1174.66 362.267L1174.66 362.257L1174.67 362.247L1163.88 360.1ZM1187.58 241L1198.36 243.147L1200.98 230H1187.58V241ZM1129.08 241V230H1120.06L1118.29 238.843L1129.08 241ZM1105.98 356.5L1116.76 358.692L1116.76 358.675L1116.76 358.657L1105.98 356.5ZM1026.78 356.5L1037.56 358.657L1037.56 358.657L1026.78 356.5ZM1049.88 241L1060.66 243.157L1063.29 230H1049.88V241ZM990.477 241V230H981.468L979.692 238.832L990.477 241ZM967.077 357.4L956.292 355.232L956.283 355.277L956.274 355.323L967.077 357.4ZM1052.58 466.2C1085.44 466.2 1112.87 457.548 1133.85 439.501C1154.75 421.518 1168.03 395.244 1174.66 362.267L1153.09 357.933C1147.12 387.656 1135.65 408.932 1119.5 422.824C1103.43 436.652 1081.51 444.2 1052.58 444.2V466.2ZM1174.67 362.247L1198.36 243.147L1176.79 238.853L1153.09 357.953L1174.67 362.247ZM1187.58 230H1129.08V252H1187.58V230ZM1118.29 238.843L1095.19 354.343L1116.76 358.657L1139.86 243.157L1118.29 238.843ZM1095.2 354.308C1091.76 371.194 1086.99 381.195 1081.53 386.957C1076.52 392.243 1069.93 395 1059.78 395V417C1074.53 417 1087.43 412.707 1097.5 402.093C1107.11 391.955 1112.99 377.206 1116.76 358.692L1095.2 354.308ZM1059.78 395C1050.04 395 1044.49 392.713 1041.4 389.857C1038.47 387.151 1035.98 382.291 1035.98 373H1013.98C1013.98 386.209 1017.63 397.849 1026.48 406.018C1035.16 414.037 1047.01 417 1059.78 417V395ZM1035.98 373C1035.98 368.77 1036.47 364.106 1037.56 358.657L1015.99 354.343C1014.68 360.894 1013.98 367.03 1013.98 373H1035.98ZM1037.56 358.657L1060.66 243.157L1039.09 238.843L1015.99 354.343L1037.56 358.657ZM1049.88 230H990.477V252H1049.88V230ZM979.692 238.832L956.292 355.232L977.861 359.568L1001.26 243.168L979.692 238.832ZM956.274 355.323C954.69 363.562 953.677 371.791 953.677 379.6H975.677C975.677 373.609 976.463 366.838 977.879 359.477L956.274 355.323ZM953.677 379.6C953.677 405.619 963.011 427.714 980.838 443.153C998.477 458.429 1023.27 466.2 1052.58 466.2V444.2C1026.98 444.2 1007.83 437.421 995.24 426.522C982.842 415.786 975.677 400.081 975.677 379.6H953.677Z" fill="#424242"/>
</svg>
