<svg width="1856" height="165" viewBox="0 0 1856 165" fill="none" xmlns="http://www.w3.org/2000/svg">
<path d="M27.932 159H63.248L88.1 35.176H136.714L142.6 6.39999H9.62L3.734 35.176H52.566L27.932 159ZM266.242 6.39999L254.252 66.35H185.146L197.136 6.39999H161.602L131.082 159H166.616L179.042 96.87H248.148L235.722 159H271.038L301.558 6.39999H266.242ZM422.9 159H458.216L420.72 6.39999H385.84L287.086 159H324.8L344.638 126.3H415.706L422.9 159ZM360.988 99.486L396.958 40.626L409.82 99.486H360.988ZM609.645 6.39999L590.679 102.102L533.781 6.39999H504.569L474.049 159H508.929L528.113 63.516L585.011 159H614.005L644.525 6.39999H609.645ZM729.243 161.616C785.487 161.616 823.637 122.158 823.637 70.056C823.637 30.816 795.733 3.784 749.299 3.784C693.055 3.784 654.905 43.242 654.905 95.344C654.905 134.584 682.809 161.616 729.243 161.616ZM732.295 131.532C705.481 131.532 690.657 116.054 690.657 93.382C690.657 61.118 711.803 33.868 746.247 33.868C773.061 33.868 787.885 49.346 787.885 72.018C787.885 104.282 766.739 131.532 732.295 131.532ZM887.239 161.616C929.749 161.616 957.653 141.342 957.653 109.732C957.653 62.862 881.789 75.942 882.007 50.872C882.007 39.972 893.997 32.124 914.489 32.124C929.531 32.124 944.355 36.048 955.909 43.896L969.207 16.864C955.909 8.36199 936.943 3.784 916.451 3.784C874.159 3.784 846.691 24.058 846.691 55.45C846.691 104.064 922.337 90.984 922.337 115.4C922.337 126.518 910.129 133.276 890.727 133.276C872.633 133.276 854.321 127.608 840.369 117.362L825.981 144.612C838.843 154.204 862.387 161.616 887.239 161.616ZM973.064 159H1047.62C1104.08 159 1142.67 123.902 1142.67 70.056C1142.67 31.034 1114.55 6.39999 1067.46 6.39999H1003.58L973.064 159ZM1014.27 130.006L1033.23 35.394H1063.53C1092.31 35.394 1106.92 49.346 1106.92 72.018C1106.92 105.154 1085.33 130.006 1048.71 130.006H1014.27ZM1305.55 53.706C1305.55 23.84 1283.75 6.39999 1245.82 6.39999H1183.69L1153.17 159H1188.7L1197.21 116.272H1227.29L1251.27 159H1288.55L1261.95 111.912C1289.2 103.41 1305.55 82.482 1305.55 53.706ZM1232.74 88.15H1202.66L1213.34 35.176H1241.24C1259.34 35.176 1269.8 42.152 1269.8 56.976C1269.8 77.25 1256.07 88.15 1232.74 88.15ZM1392.61 161.616C1448.85 161.616 1487 122.158 1487 70.056C1487 30.816 1459.1 3.784 1412.67 3.784C1356.42 3.784 1318.27 43.242 1318.27 95.344C1318.27 134.584 1346.18 161.616 1392.61 161.616ZM1395.66 131.532C1368.85 131.532 1354.02 116.054 1354.02 93.382C1354.02 61.118 1375.17 33.868 1409.61 33.868C1436.43 33.868 1451.25 49.346 1451.25 72.018C1451.25 104.282 1430.11 131.532 1395.66 131.532ZM1669.42 6.39999L1594.86 101.448L1556.71 6.39999H1527.93L1497.41 159H1530.55L1548.86 67.44L1580.25 142.868H1595.95L1654.16 68.312L1636.28 159H1669.42L1699.72 6.39999H1669.42ZM1845.58 34.74L1851.46 6.39999H1736.14L1705.62 159H1823.78L1829.66 130.66H1746.39L1753.36 95.344H1824.43L1829.88 67.876H1759.03L1765.57 34.74H1845.58Z" fill="#5F0B0B"/>
<path d="M27.932 159L24.9897 158.415L24.2764 162H27.932V159ZM63.248 159V162H65.7057L66.1893 159.59L63.248 159ZM88.1 35.176V32.176H85.6423L85.1587 34.5857L88.1 35.176ZM136.714 35.176V38.176H139.162L139.653 35.7772L136.714 35.176ZM142.6 6.39999L145.539 7.00118L146.276 3.39999H142.6V6.39999ZM9.62 6.39999V3.39999H7.17152L6.68086 5.7988L9.62 6.39999ZM3.734 35.176L0.794855 34.5748L0.0582485 38.176H3.734V35.176ZM52.566 35.176L55.5083 35.7614L56.2216 32.176H52.566V35.176ZM27.932 162H63.248V156H27.932V162ZM66.1893 159.59L91.0413 35.7663L85.1587 34.5857L60.3067 158.41L66.1893 159.59ZM88.1 38.176H136.714V32.176H88.1V38.176ZM139.653 35.7772L145.539 7.00118L139.661 5.7988L133.775 34.5748L139.653 35.7772ZM142.6 3.39999H9.62V9.39999H142.6V3.39999ZM6.68086 5.7988L0.794855 34.5748L6.67315 35.7772L12.5591 7.00118L6.68086 5.7988ZM3.734 38.176H52.566V32.176H3.734V38.176ZM49.6237 34.5906L24.9897 158.415L30.8743 159.585L55.5083 35.7614L49.6237 34.5906ZM266.242 6.39999V3.39999H263.782L263.3 5.81164L266.242 6.39999ZM254.252 66.35V69.35H256.711L257.194 66.9383L254.252 66.35ZM185.146 66.35L182.204 65.7617L181.486 69.35H185.146V66.35ZM197.136 6.39999L200.078 6.98834L200.795 3.39999H197.136V6.39999ZM161.602 6.39999V3.39999H159.142L158.66 5.81164L161.602 6.39999ZM131.082 159L128.14 158.412L127.422 162H131.082V159ZM166.616 159V162H169.075L169.558 159.588L166.616 159ZM179.042 96.87V93.87H176.582L176.1 96.2816L179.042 96.87ZM248.148 96.87L251.09 97.4583L251.807 93.87H248.148V96.87ZM235.722 159L232.78 158.412L232.062 162H235.722V159ZM271.038 159V162H273.497L273.98 159.588L271.038 159ZM301.558 6.39999L304.5 6.98834L305.217 3.39999H301.558V6.39999ZM263.3 5.81164L251.31 65.7617L257.194 66.9383L269.184 6.98834L263.3 5.81164ZM254.252 63.35H185.146V69.35H254.252V63.35ZM188.088 66.9383L200.078 6.98834L194.194 5.81164L182.204 65.7617L188.088 66.9383ZM197.136 3.39999H161.602V9.39999H197.136V3.39999ZM158.66 5.81164L128.14 158.412L134.024 159.588L164.544 6.98834L158.66 5.81164ZM131.082 162H166.616V156H131.082V162ZM169.558 159.588L181.984 97.4583L176.1 96.2816L163.674 158.412L169.558 159.588ZM179.042 99.87H248.148V93.87H179.042V99.87ZM245.206 96.2816L232.78 158.412L238.664 159.588L251.09 97.4583L245.206 96.2816ZM235.722 162H271.038V156H235.722V162ZM273.98 159.588L304.5 6.98834L298.616 5.81164L268.096 158.412L273.98 159.588ZM301.558 3.39999H266.242V9.39999H301.558V3.39999ZM422.9 159L419.97 159.645L420.489 162H422.9V159ZM458.216 159V162H462.043L461.13 158.284L458.216 159ZM420.72 6.39999L423.634 5.68414L423.072 3.39999H420.72V6.39999ZM385.84 6.39999V3.39999H384.208L383.322 4.77009L385.84 6.39999ZM287.086 159L284.568 157.37L281.572 162H287.086V159ZM324.8 159V162H326.489L327.365 160.556L324.8 159ZM344.638 126.3V123.3H342.949L342.073 124.744L344.638 126.3ZM415.706 126.3L418.636 125.655L418.118 123.3H415.706V126.3ZM360.988 99.486L358.428 97.9216L355.639 102.486H360.988V99.486ZM396.958 40.626L399.889 39.9855L398.294 32.6868L394.398 39.0616L396.958 40.626ZM409.82 99.486V102.486H413.547L412.751 98.8456L409.82 99.486ZM422.9 162H458.216V156H422.9V162ZM461.13 158.284L423.634 5.68414L417.807 7.11584L455.303 159.716L461.13 158.284ZM420.72 3.39999H385.84V9.39999H420.72V3.39999ZM383.322 4.77009L284.568 157.37L289.605 160.63L388.359 8.02989L383.322 4.77009ZM287.086 162H324.8V156H287.086V162ZM327.365 160.556L347.203 127.856L342.073 124.744L322.235 157.444L327.365 160.556ZM344.638 129.3H415.706V123.3H344.638V129.3ZM412.776 126.945L419.97 159.645L425.83 158.355L418.636 125.655L412.776 126.945ZM363.548 101.05L399.518 42.1903L394.398 39.0616L358.428 97.9216L363.548 101.05ZM394.027 41.2664L406.889 100.126L412.751 98.8456L399.889 39.9855L394.027 41.2664ZM409.82 96.486H360.988V102.486H409.82V96.486ZM609.645 6.39999V3.39999H607.181L606.702 5.8168L609.645 6.39999ZM590.679 102.102L588.1 103.635L592.1 110.363L593.621 102.685L590.679 102.102ZM533.781 6.39999L536.359 4.86688L535.487 3.39999H533.781V6.39999ZM504.569 6.39999V3.39999H502.109L501.627 5.81164L504.569 6.39999ZM474.049 159L471.107 158.412L470.389 162H474.049V159ZM508.929 159V162H511.386L511.87 159.591L508.929 159ZM528.113 63.516L530.69 61.9803L526.705 55.2929L525.171 62.9251L528.113 63.516ZM585.011 159L582.433 160.536L583.306 162H585.011V159ZM614.005 159V162H616.464L616.946 159.588L614.005 159ZM644.525 6.39999L647.466 6.98834L648.184 3.39999H644.525V6.39999ZM606.702 5.8168L587.736 101.519L593.621 102.685L612.587 6.98318L606.702 5.8168ZM593.257 100.569L536.359 4.86688L531.202 7.9331L588.1 103.635L593.257 100.569ZM533.781 3.39999H504.569V9.39999H533.781V3.39999ZM501.627 5.81164L471.107 158.412L476.99 159.588L507.51 6.98834L501.627 5.81164ZM474.049 162H508.929V156H474.049V162ZM511.87 159.591L531.054 64.1069L525.171 62.9251L505.987 158.409L511.87 159.591ZM525.535 65.0517L582.433 160.536L587.588 157.464L530.69 61.9803L525.535 65.0517ZM585.011 162H614.005V156H585.011V162ZM616.946 159.588L647.466 6.98834L641.583 5.81164L611.063 158.412L616.946 159.588ZM644.525 3.39999H609.645V9.39999H644.525V3.39999ZM729.243 164.616C787.111 164.616 826.637 123.848 826.637 70.056H820.637C820.637 120.468 783.863 158.616 729.243 158.616V164.616ZM826.637 70.056C826.637 49.6922 819.376 32.2842 805.903 19.989C792.454 7.71605 773.091 0.783997 749.299 0.783997V6.784C771.941 6.784 789.747 13.3679 801.859 24.421C813.946 35.4518 820.637 51.1798 820.637 70.056H826.637ZM749.299 0.783997C691.431 0.783997 651.905 41.5525 651.905 95.344H657.905C657.905 44.9315 694.679 6.784 749.299 6.784V0.783997ZM651.905 95.344C651.905 115.708 659.166 133.116 672.639 145.411C686.088 157.684 705.451 164.616 729.243 164.616V158.616C706.601 158.616 688.795 152.032 676.684 140.979C664.596 129.948 657.905 114.22 657.905 95.344H651.905ZM732.295 128.532C719.461 128.532 709.859 124.836 703.487 118.784C697.128 112.744 693.657 104.049 693.657 93.382H687.657C687.657 105.387 691.598 115.767 699.355 123.134C707.098 130.489 718.316 134.532 732.295 134.532V128.532ZM693.657 93.382C693.657 62.4179 713.796 36.868 746.247 36.868V30.868C709.811 30.868 687.657 59.8181 687.657 93.382H693.657ZM746.247 36.868C759.082 36.868 768.683 40.5637 775.055 46.6162C781.414 52.6559 784.885 61.3514 784.885 72.018H790.885C790.885 60.0126 786.944 49.6331 779.187 42.2658C771.444 34.9113 760.227 30.868 746.247 30.868V36.868ZM784.885 72.018C784.885 102.982 764.747 128.532 732.295 128.532V134.532C768.732 134.532 790.885 105.582 790.885 72.018H784.885ZM882.007 50.872L885.006 50.8981L885.007 50.885V50.872H882.007ZM955.909 43.896L954.223 46.3777L957.077 48.3165L958.601 45.2202L955.909 43.896ZM969.207 16.864L971.898 18.1882L973.083 15.7813L970.823 14.3364L969.207 16.864ZM840.369 117.362L842.144 114.944L839.34 112.885L837.716 115.961L840.369 117.362ZM825.981 144.612L823.328 143.211L822.129 145.482L824.187 147.017L825.981 144.612ZM887.239 164.616C908.931 164.616 927.216 159.448 940.162 149.946C953.192 140.383 960.653 126.529 960.653 109.732H954.653C954.653 124.545 948.162 136.633 936.612 145.109C924.978 153.647 908.057 158.616 887.239 158.616V164.616ZM960.653 109.732C960.653 97.0405 955.447 88.2372 947.69 81.9559C940.096 75.806 930.13 72.1302 920.616 69.2552C910.836 66.3002 901.797 64.2424 894.915 61.2963C888.005 58.3384 884.969 55.1861 885.006 50.8981L879.007 50.8459C878.935 59.0929 885.3 63.7068 892.554 66.8121C899.835 69.9291 909.721 72.2313 918.88 74.9988C928.304 77.8463 937.291 81.2555 943.914 86.6188C950.375 91.8505 954.653 98.9885 954.653 109.732H960.653ZM885.007 50.872C885.007 46.7013 887.239 42.8938 892.103 39.9852C897.043 37.0306 904.573 35.124 914.489 35.124V29.124C903.912 29.124 895.201 31.1413 889.023 34.8358C882.769 38.5762 879.007 44.1427 879.007 50.872H885.007ZM914.489 35.124C929.044 35.124 943.253 38.9263 954.223 46.3777L957.594 41.4144C945.456 33.1696 930.018 29.124 914.489 29.124V35.124ZM958.601 45.2202L971.898 18.1882L966.515 15.5398L953.217 42.5718L958.601 45.2202ZM970.823 14.3364C956.902 5.43648 937.323 0.783997 916.451 0.783997V6.784C936.562 6.784 954.915 11.2875 967.591 19.3916L970.823 14.3364ZM916.451 0.783997C894.864 0.783997 876.738 5.95381 863.927 15.4334C851.033 24.9738 843.691 38.7734 843.691 55.45H849.691C849.691 40.7346 856.083 28.7012 867.495 20.2566C878.991 11.7512 895.745 6.784 916.451 6.784V0.783997ZM843.691 55.45C843.691 68.5298 848.841 77.6511 856.574 84.1843C864.154 90.5886 874.107 94.4159 883.626 97.3649C893.426 100.401 902.43 102.437 909.359 105.336C916.33 108.253 919.337 111.306 919.337 115.4H925.337C925.337 107.286 918.887 102.818 911.675 99.8011C904.42 96.7662 894.512 94.4562 885.401 91.6336C876.009 88.7239 867.05 85.18 860.446 79.6011C853.996 74.1511 849.691 66.6772 849.691 55.45H843.691ZM919.337 115.4C919.337 119.639 917.094 123.218 912.337 125.892C907.473 128.627 900.142 130.276 890.727 130.276V136.276C900.713 136.276 909.187 134.546 915.278 131.122C921.475 127.638 925.337 122.279 925.337 115.4H919.337ZM890.727 130.276C873.219 130.276 855.541 124.782 842.144 114.944L838.593 119.78C853.1 130.434 872.046 136.276 890.727 136.276V130.276ZM837.716 115.961L823.328 143.211L828.634 146.013L843.022 118.763L837.716 115.961ZM824.187 147.017C837.694 157.09 861.919 164.616 887.239 164.616V158.616C862.854 158.616 839.991 151.318 827.774 142.207L824.187 147.017ZM973.064 159L970.122 158.412L969.405 162H973.064V159ZM1003.58 6.39999V3.39999H1001.12L1000.64 5.81164L1003.58 6.39999ZM1014.27 130.006L1011.32 129.416L1010.61 133.006H1014.27V130.006ZM1033.23 35.394V32.394H1030.77L1030.29 34.8043L1033.23 35.394ZM973.064 162H1047.62V156H973.064V162ZM1047.62 162C1076.47 162 1101.01 153.026 1118.36 136.919C1135.73 120.792 1145.67 97.7306 1145.67 70.056H1139.67C1139.67 96.2274 1130.31 117.638 1114.28 132.521C1098.22 147.425 1075.23 156 1047.62 156V162ZM1145.67 70.056C1145.67 49.7744 1138.33 32.9861 1124.67 21.3139C1111.06 9.68904 1091.5 3.39999 1067.46 3.39999V9.39999C1090.51 9.39999 1108.54 15.4279 1120.77 25.8756C1132.94 36.2759 1139.67 51.3155 1139.67 70.056H1145.67ZM1067.46 3.39999H1003.58V9.39999H1067.46V3.39999ZM1000.64 5.81164L970.122 158.412L976.006 159.588L1006.53 6.98834L1000.64 5.81164ZM1017.21 130.596L1036.17 35.9836L1030.29 34.8043L1011.32 129.416L1017.21 130.596ZM1033.23 38.394H1063.53V32.394H1033.23V38.394ZM1063.53 38.394C1077.48 38.394 1087.52 41.7763 1094.04 47.4649C1100.51 53.1005 1103.92 61.354 1103.92 72.018H1109.92C1109.92 60.01 1106.02 49.9515 1097.99 42.9431C1090.01 35.9877 1078.37 32.394 1063.53 32.394V38.394ZM1103.92 72.018C1103.92 87.9336 1098.74 101.644 1089.39 111.357C1080.05 121.051 1066.32 127.006 1048.71 127.006V133.006C1067.73 133.006 1083.1 126.535 1093.71 115.519C1104.3 104.522 1109.92 89.2383 1109.92 72.018H1103.92ZM1048.71 127.006H1014.27V133.006H1048.71V127.006ZM1183.69 6.39999V3.39999H1181.23L1180.75 5.81164L1183.69 6.39999ZM1153.17 159L1150.23 158.412L1149.51 162H1153.17V159ZM1188.7 159V162H1191.17L1191.65 159.585L1188.7 159ZM1197.21 116.272V113.272H1194.74L1194.26 115.687L1197.21 116.272ZM1227.29 116.272L1229.91 114.804L1229.05 113.272H1227.29V116.272ZM1251.27 159L1248.65 160.468L1249.51 162H1251.27V159ZM1288.55 159V162H1293.69L1291.16 157.525L1288.55 159ZM1261.95 111.912L1261.06 109.048L1257.51 110.154L1259.34 113.387L1261.95 111.912ZM1202.66 88.15L1199.71 87.557L1198.99 91.15H1202.66V88.15ZM1213.34 35.176V32.176H1210.88L1210.4 34.583L1213.34 35.176ZM1308.55 53.706C1308.55 37.9738 1302.77 25.2347 1291.78 16.5039C1280.88 7.84917 1265.2 3.39999 1245.82 3.39999V9.39999C1264.37 9.39999 1278.56 13.6708 1288.04 21.2026C1297.43 28.6583 1302.55 39.5722 1302.55 53.706H1308.55ZM1245.82 3.39999H1183.69V9.39999H1245.82V3.39999ZM1180.75 5.81164L1150.23 158.412L1156.11 159.588L1186.63 6.98834L1180.75 5.81164ZM1153.17 162H1188.7V156H1153.17V162ZM1191.65 159.585L1200.15 116.857L1194.26 115.687L1185.76 158.415L1191.65 159.585ZM1197.21 119.272H1227.29V113.272H1197.21V119.272ZM1224.67 117.74L1248.65 160.468L1253.89 157.532L1229.91 114.804L1224.67 117.74ZM1251.27 162H1288.55V156H1251.27V162ZM1291.16 157.525L1264.56 110.437L1259.34 113.387L1285.94 160.475L1291.16 157.525ZM1262.85 114.776C1291.28 105.904 1308.55 83.8642 1308.55 53.706H1302.55C1302.55 81.0998 1287.12 100.916 1261.06 109.048L1262.85 114.776ZM1232.74 85.15H1202.66V91.15H1232.74V85.15ZM1205.6 88.743L1216.28 35.769L1210.4 34.583L1199.71 87.557L1205.6 88.743ZM1213.34 38.176H1241.24V32.176H1213.34V38.176ZM1241.24 38.176C1249.98 38.176 1256.38 39.8741 1260.53 42.9315C1264.51 45.8722 1266.8 50.3528 1266.8 56.976H1272.8C1272.8 48.7752 1269.85 42.3558 1264.09 38.1025C1258.48 33.9659 1250.6 32.176 1241.24 32.176V38.176ZM1266.8 56.976C1266.8 66.3862 1263.65 73.2645 1258.1 77.8554C1252.47 82.518 1243.98 85.15 1232.74 85.15V91.15C1244.82 91.15 1254.86 88.332 1261.93 82.4761C1269.09 76.5485 1272.8 67.8398 1272.8 56.976H1266.8ZM1392.61 164.616C1450.48 164.616 1490 123.848 1490 70.056H1484C1484 120.468 1447.23 158.616 1392.61 158.616V164.616ZM1490 70.056C1490 49.6922 1482.74 32.2842 1469.27 19.989C1455.82 7.71605 1436.46 0.783997 1412.67 0.783997V6.784C1435.31 6.784 1453.11 13.3679 1465.23 24.421C1477.31 35.4518 1484 51.1798 1484 70.056H1490ZM1412.67 0.783997C1354.8 0.783997 1315.27 41.5525 1315.27 95.344H1321.27C1321.27 44.9315 1358.05 6.784 1412.67 6.784V0.783997ZM1315.27 95.344C1315.27 115.708 1322.53 133.116 1336.01 145.411C1349.45 157.684 1368.82 164.616 1392.61 164.616V158.616C1369.97 158.616 1352.16 152.032 1340.05 140.979C1327.96 129.948 1321.27 114.22 1321.27 95.344H1315.27ZM1395.66 128.532C1382.83 128.532 1373.23 124.836 1366.85 118.784C1360.5 112.744 1357.02 104.049 1357.02 93.382H1351.02C1351.02 105.387 1354.97 115.767 1362.72 123.134C1370.47 130.489 1381.68 134.532 1395.66 134.532V128.532ZM1357.02 93.382C1357.02 62.4179 1377.16 36.868 1409.61 36.868V30.868C1373.18 30.868 1351.02 59.8181 1351.02 93.382H1357.02ZM1409.61 36.868C1422.45 36.868 1432.05 40.5637 1438.42 46.6162C1444.78 52.6559 1448.25 61.3514 1448.25 72.018H1454.25C1454.25 60.0126 1450.31 49.6331 1442.55 42.2658C1434.81 34.9113 1423.59 30.868 1409.61 30.868V36.868ZM1448.25 72.018C1448.25 102.982 1428.11 128.532 1395.66 128.532V134.532C1432.1 134.532 1454.25 105.582 1454.25 72.018H1448.25ZM1669.42 6.39999V3.39999H1667.96L1667.06 4.54844L1669.42 6.39999ZM1594.86 101.448L1592.08 102.565L1594.01 107.39L1597.22 103.3L1594.86 101.448ZM1556.71 6.39999L1559.49 5.28252L1558.74 3.39999H1556.71V6.39999ZM1527.93 6.39999V3.39999H1525.47L1524.99 5.81164L1527.93 6.39999ZM1497.41 159L1494.47 158.412L1493.75 162H1497.41V159ZM1530.55 159V162H1533.01L1533.49 159.588L1530.55 159ZM1548.86 67.44L1551.63 66.2873L1547.85 57.2014L1545.92 66.8516L1548.86 67.44ZM1580.25 142.868L1577.48 144.021L1578.25 145.868H1580.25V142.868ZM1595.95 142.868V145.868H1597.41L1598.31 144.714L1595.95 142.868ZM1654.16 68.312L1657.1 68.8922L1651.79 66.4659L1654.16 68.312ZM1636.28 159L1633.34 158.42L1632.63 162H1636.28V159ZM1669.42 159V162H1671.88L1672.36 159.584L1669.42 159ZM1699.72 6.39999L1702.66 6.9843L1703.37 3.39999H1699.72V6.39999ZM1667.06 4.54844L1592.5 99.5965L1597.22 103.3L1671.78 8.25154L1667.06 4.54844ZM1597.64 100.331L1559.49 5.28252L1553.93 7.51746L1592.08 102.565L1597.64 100.331ZM1556.71 3.39999H1527.93V9.39999H1556.71V3.39999ZM1524.99 5.81164L1494.47 158.412L1500.36 159.588L1530.88 6.98834L1524.99 5.81164ZM1497.41 162H1530.55V156H1497.41V162ZM1533.49 159.588L1551.8 68.0283L1545.92 66.8516L1527.61 158.412L1533.49 159.588ZM1546.09 68.5927L1577.48 144.021L1583.02 141.715L1551.63 66.2873L1546.09 68.5927ZM1580.25 145.868H1595.95V139.868H1580.25V145.868ZM1598.31 144.714L1656.52 70.1581L1651.79 66.4659L1593.59 141.022L1598.31 144.714ZM1651.21 67.7318L1633.34 158.42L1639.22 159.58L1657.1 68.8922L1651.21 67.7318ZM1636.28 162H1669.42V156H1636.28V162ZM1672.36 159.584L1702.66 6.9843L1696.78 5.81568L1666.47 158.416L1672.36 159.584ZM1699.72 3.39999H1669.42V9.39999H1699.72V3.39999ZM1845.58 34.74V37.74H1848.02L1848.51 35.35L1845.58 34.74ZM1851.46 6.39999L1854.4 7.01005L1855.15 3.39999H1851.46V6.39999ZM1736.14 6.39999V3.39999H1733.68L1733.2 5.81164L1736.14 6.39999ZM1705.62 159L1702.68 158.412L1701.96 162H1705.62V159ZM1823.78 159V162H1826.22L1826.71 159.61L1823.78 159ZM1829.66 130.66L1832.6 131.27L1833.35 127.66H1829.66V130.66ZM1746.39 130.66L1743.44 130.079L1742.74 133.66H1746.39V130.66ZM1753.36 95.344V92.344H1750.9L1750.42 94.7626L1753.36 95.344ZM1824.43 95.344V98.344H1826.89L1827.37 95.9278L1824.43 95.344ZM1829.88 67.876L1832.82 68.4599L1833.53 64.876H1829.88V67.876ZM1759.03 67.876L1756.09 67.2951L1755.38 70.876H1759.03V67.876ZM1765.57 34.74V31.74H1763.11L1762.63 34.1591L1765.57 34.74ZM1848.51 35.35L1854.4 7.01005L1848.53 5.78993L1842.64 34.1299L1848.51 35.35ZM1851.46 3.39999H1736.14V9.39999H1851.46V3.39999ZM1733.2 5.81164L1702.68 158.412L1708.56 159.588L1739.08 6.98834L1733.2 5.81164ZM1705.62 162H1823.78V156H1705.62V162ZM1826.71 159.61L1832.6 131.27L1826.73 130.05L1820.84 158.39L1826.71 159.61ZM1829.66 127.66H1746.39V133.66H1829.66V127.66ZM1749.33 131.241L1756.31 95.9254L1750.42 94.7626L1743.44 130.079L1749.33 131.241ZM1753.36 98.344H1824.43V92.344H1753.36V98.344ZM1827.37 95.9278L1832.82 68.4599L1826.94 67.2921L1821.49 94.7601L1827.37 95.9278ZM1829.88 64.876H1759.03V70.876H1829.88V64.876ZM1761.97 68.4569L1768.51 35.3209L1762.63 34.1591L1756.09 67.2951L1761.97 68.4569ZM1765.57 37.74H1845.58V31.74H1765.57V37.74Z" fill="#D5D5D5"/>
</svg>
